<?xml version="1.0" encoding="UTF-8"?>
<!-- Created with Inkscape (http://www.inkscape.org/) -->
<svg width="279.31mm" height="97.595mm" version="1.1" viewBox="0 0 279.31 97.595" xml:space="preserve" xmlns="http://www.w3.org/2000/svg"><g transform="translate(327.57 -280.27)"><path d="m-257.45 377.64c-0.41779-0.14721-1.0271-0.53351-1.3539-0.85844l-0.59433-0.59078-0.25792-0.7986c-0.66423-2.0567 0.1385-4.0952 1.9174-4.8692l0.68137-0.29644h2.5004l0.78671 0.39865 0.78672 0.39866 0.30238 0.49722 0.30238 0.49723-0.17005 0.2049c-0.0935 0.11269-0.43348 0.2049-0.75544 0.2049h-0.58539l-0.2992-0.33061c-0.72165-0.79742-1.6101-0.95385-2.6738-0.47078l-0.64404 0.29249-0.3388 0.5482-0.33881 0.54821v1.8024l0.25527 0.53794c0.32356 0.68187 0.9386 1.1216 1.7501 1.2514l0.63565 0.10164 0.5434-0.17933c0.29886-0.0986 0.70115-0.34727 0.89398-0.55253l0.35059-0.37318-0.1048-0.73842-0.4716 0.0406c-0.25938 0.0223-0.63083 3e-3 -0.82543-0.0423l-0.35382-0.0829v-0.35869c0-0.19728 0.0849-0.44361 0.1887-0.5474l0.18871-0.1887h2.9037l0.0822 0.27519c0.0452 0.15136 0.0986 0.97045 0.11874 1.8202l0.0365 1.545-0.22609 0.14305c-0.35467 0.22443-0.60018 0.1741-0.81297-0.16663-0.22982-0.36799-0.63327-0.40849-0.89752-0.0901-0.54373 0.65514-2.2771 0.86539-3.5211 0.42707zm-11.008-0.12084-0.7597-0.24162-0.60607-0.60606-0.60607-0.60607-0.16658-0.59992c-0.0916-0.32995-0.16543-1.0245-0.16402-1.5434l3e-3 -0.94352 0.32081-0.70765c0.39956-0.88132 0.83067-1.3505 1.638-1.7825l0.62902-0.33663 2.6733 6.4e-4 1.6497 0.86506 0.86633 1.3081 0.049 1.4273 0.0491 1.4273-0.52081 0.85722-0.5208 0.85723-1.5045 0.7709-2.2696 0.0954zm2.8525-1.3208 0.52022-0.31717 0.30191-0.66509 0.30191-0.66508 6e-3 -1.5725-0.31248-0.51252c-0.17187-0.28188-0.54312-0.65733-0.825-0.83434l-0.51252-0.32182-1.7148 0.1272-1.1661 1.314-0.10462 0.76065-0.10461 0.76064 0.16656 0.61857c0.28369 1.0535 1.0247 1.5928 2.2159 1.6127l0.70764 0.0118zm17.662 0.77213c-0.16347-0.4061-0.29475-1.1035-0.83275-4.4243l-0.35029-2.162 0.15451-0.15451c0.23039-0.23039 1.0574-0.3467 1.3032-0.18329l0.21504 0.1429 0.27727 1.7091c0.1525 0.94001 0.3262 2.116 0.386 2.6134s0.21746 1.0131 0.35037 1.146l0.24166 0.24166 0.96574-0.103c0.53115-0.0566 1.2826-0.15931 1.6698-0.22813l0.70412-0.12515 0.55745 0.29834v0.92647l-0.35382 0.0663c-0.32575 0.0611-2.3324 0.30337-4.3181 0.52142l-0.81924 0.0899zm-28.057-0.10382-0.25253-0.27905 0.13826-0.62516c0.076-0.34384 0.29336-1.6866 0.48293-2.984 0.18957-1.2974 0.39472-2.5357 0.45588-2.752l0.11121-0.39314 1.1034-0.0946 0.40768 0.49122-0.17985 1.2956c-0.49063 3.5342-0.7822 5.1671-0.96121 5.3828-0.26785 0.32274-0.997 0.29944-1.3058-0.0417zm-8.0113-0.88824c-0.83232-0.29706-1.2904-0.62662-1.7994-1.2945l-0.44292-0.5812 3e-3 -1.427 3e-3 -1.427 0.33735-0.62902c1.2076-2.2518 4.0565-2.8309 6.1334-1.2468 1.2809 0.97698 1.3711 2.4773 0.12857 2.139l-0.47177-0.12847-0.41881-0.6166c-1.0084-1.4846-2.8582-1.2858-3.7091 0.39856l-0.35382 0.70038v1.9444l0.88971 0.95244 0.57626 0.10811c0.74251 0.1393 1.2274 0.0114 1.8076-0.47685l0.46728-0.39318h1.0955l0.20111 0.24233 0.20112 0.24232-0.53568 0.56315c-0.29463 0.30973-0.81874 0.69448-1.1647 0.855l-0.62902 0.29186-0.8649-4e-3c-0.47569-2e-3 -1.1296-0.0979-1.4532-0.21341zm46.572-0.074c-0.70751-0.23139-1.2533-0.67538-1.5482-1.2595-0.3287-0.65107-1.3304-5.132-1.2146-5.4336 0.19169-0.49953 1.6756-0.35183 1.6756 0.16677 0 0.38244 0.77283 3.8421 0.9723 4.3527 0.51415 1.3159 2.6126 1.3588 3.1051 0.0635l0.13817-0.36343-0.29859-1.327c-0.16422-0.72983-0.42099-1.847-0.5706-2.4826l-0.27201-1.1557 0.3013-0.22032c1.1003-0.80452 2.4451 2.0649 2.4422 5.2105l-4.5e-4 0.62344-0.31805 0.52167-0.31805 0.52166-0.84537 0.38703-0.84537 0.38702-0.99824 0.0704c-0.54903 0.0387-1.1813 0.0105-1.405-0.0626zm-53.678-1.5219c-0.13591-0.13591-0.24712-0.48572-0.24712-0.77735v-0.53024l-0.33839-0.23702c-0.18611-0.13036-0.85955-0.35988-1.4965-0.51005l-1.1581-0.27303-0.59372 0.57976c-0.58833 0.57449-0.8793 0.66395-1.5633 0.48064l-0.35382-0.0948v-0.26784c0-0.14731 1.0719-1.5897 2.3819-3.2054l2.3819-2.9375 0.2521 9e-4c0.13866 4.4e-4 0.52094 0.0755 0.84952 0.16677l0.59741 0.1659 0.14628 0.3443c0.17581 0.41382 0.66842 6.9867 0.53927 7.1957-0.14705 0.23794-1.1296 0.16717-1.3974-0.10065zm-0.43707-4.3526 0.0459-1.2187h-0.24249c-0.26136 0-0.47547 0.20819-1.2001 1.1669-0.64079 0.84782-0.26371 1.4104 0.87897 1.3114l0.47176-0.0409zm66.29 3.1614c-0.0933-0.11708-0.2541-0.49593-0.35745-0.84189-0.10334-0.34596-0.28465-0.87669-0.40291-1.1794-1.0442-2.673-1.5028-4.0485-1.463-4.3885l0.0471-0.40194 0.8815-0.30822 0.26689 0.16656c0.1468 0.0916 0.35294 0.40733 0.4581 0.7016 0.85229 2.3851 1.5787 4.2333 1.7859 4.544l0.24734 0.37087 1.6-0.51043c0.88002-0.28073 1.7594-0.48779 1.9542-0.46012l0.35419 0.0503v1.0788l-2.0443 0.60317c-1.1244 0.33174-2.2949 0.64478-2.6012 0.69564l-0.55691 0.0925zm-77.338-2.2179-0.40453-0.35382 0.16271-1.8084c0.52833-5.8723 0.46085-5.5039 1.0082-5.5039 0.3909 0 1.2614 0.70586 1.1309 0.917-0.14652 0.23708-0.73482 4.5995-0.64079 4.7516 0.18049 0.29203 0.37279 0.12863 2.1371-1.8159l1.7834-1.9657h0.41815c0.22997 0 0.58519 0.13885 0.78938 0.30856l0.37124 0.30855-5.5219 5.5158h-0.4147c-0.22809 0-0.59673-0.15922-0.81922-0.35382zm86.924-0.62901c-0.0815-0.10812-0.60292-1.2224-1.1587-2.4761s-1.1339-2.4029-1.2847-2.5537l-0.27418-0.27418-0.8179 0.32239-0.8179 0.32238-0.35267-0.0885c-0.19397-0.0487-0.39862-0.23328-0.45478-0.41021l-0.1021-0.32169 0.1895-0.22833c0.10423-0.12559 0.26231-0.22834 0.35129-0.22834 0.089 0 1.3241-0.42417 2.7448-0.94261l2.583-0.9426 0.28395 0.15196c0.76427 0.40903 0.50583 0.96532-0.62257 1.3401-0.41913 0.13922-0.84219 0.34966-0.94011 0.46766l-0.17805 0.21453 0.45819 0.91694c0.25201 0.50432 0.80008 1.6874 1.2179 2.629l0.75973 1.7121-0.36175 0.29294c-0.41576 0.33666-1.0066 0.38322-1.2228 0.0964zm-93.928-2.0907-2.2802-1.1669-0.053-0.24972c-0.0292-0.13736 0.12128-0.51009 0.33428-0.82831s1.0629-1.6148 1.8887-2.8813c1.7276-2.6497 1.651-2.5767 2.3835-2.2706l0.55731 0.23286v0.25599c0 0.14079-0.67226 1.2694-1.4939 2.508-1.9145 2.8859-1.9413 2.6255 0.39313 3.8091l1.1794 0.598v0.37396c0 0.20567-0.14153 0.46662-0.31451 0.57988l-0.31451 0.20592zm52.564 0.92176c-0.54705-0.28181-0.80181-0.76726-0.54003-1.029l0.16137-0.16137 0.54114 0.33445c0.29764 0.18395 0.75736 0.33445 1.0216 0.33445h0.48045l0.44452-0.36973c0.24448-0.20335 0.53297-0.33898 0.64108-0.3014 0.35771 0.12433 0.20416 0.64431-0.29529 0.99995l-0.49185 0.35023-1.4537 0.1048zm48.19-1.6751c-0.19067-0.20204-0.80664-1.1334-1.3688-2.0698-0.56218-0.93634-1.2874-2.0979-1.6115-2.5812-0.92346-1.377-0.95547-1.3218 1.4147-2.4383 3.3251-1.5664 5.4284-0.73457 6.4325 2.544l0.22828 0.74539-0.0975 0.67496-0.0975 0.67497-0.45842 0.52212-0.45843 0.52212-1.7204 0.88654c-1.996 1.0285-1.8202 0.98818-2.2628 0.5192zm2.1851-1.8567 0.87579-0.49426 0.24202-0.50751 0.24201-0.50751-0.53132-1.5996-1.4892-1.5862h-1.3311l-0.76991 0.39014c-1.1969 0.60651-1.2239 0.41684 0.43421 3.0487 0.84263 1.3375 1.0905 1.643 1.41 1.7381 0.023 7e-3 0.4358-0.21 0.91749-0.48185zm-110.64-1.7522c-0.90815-0.62764-1.9165-1.3046-2.2409-1.5045l-0.5897-0.3633v-0.28538c0-0.33683 4.5333-5.6646 4.8199-5.6646 0.96645 0 4.7882 3.1652 4.3742 3.6227-0.40956 0.45255-0.54594 0.40735-2.1494-0.71235-1.6677-1.1646-1.7908-1.1934-2.3967-0.56093l-0.44299 0.46237 0.0868 0.22609c0.0477 0.12435 0.6924 0.60623 1.4326 1.0708l1.3459 0.84477 3e-3 0.32237c9e-3 0.94292-0.63334 0.89406-2.1709-0.16511-1.6142-1.112-2.0274-1.083-2.6821 0.18789l-0.1778 0.34514 0.51196 0.38208c0.28159 0.21015 1.025 0.71979 1.6521 1.1325l1.1401 0.75045v0.72906l-0.30417 0.16279c-0.44947 0.24055-0.42752 0.25031-2.2119-0.98293zm59.02 0.80728-0.17197-0.21195-0.41022-6.0925 0.25706-0.18797c0.14138-0.10338 1.0574-0.31103 2.0356-0.46144 4.3297-0.6658 5.7605-0.89429 6.4961-1.0374 1.4765-0.28724 3.5111-0.52066 3.7475-0.42994l0.23604 0.0906 0.18309 0.91422c0.10069 0.50282 0.39159 1.8298 0.64644 2.9487l0.46336 2.0345-0.43359 0.43359-3.6008 0.61222c-1.9804 0.33672-4.6623 0.79741-5.9596 1.0238-1.2974 0.22634-2.5744 0.44843-2.8379 0.49353l-0.47906 0.082zm-25.575-0.19525c-0.0469-0.12214 0.18265-1.1666 0.51006-2.321 0.3274-1.1544 0.75799-2.7358 0.95687-3.5142s0.47142-1.5045 0.60565-1.6135l0.24405-0.19821 13.538 0.082v7.7055l-7.8846 0.0408-7.8847 0.0407zm83.553-1.5106c-0.42159-0.42159-0.39614-0.69923 0.0998-1.0894 0.52875-0.41592 0.71005-0.40982 1.1308 0.038 0.78283 0.83329-0.42058 1.8614-1.2306 1.0513zm-94.982-2.3049c-0.82166-0.30418-2.5908-0.94221-3.9314-1.4179-1.3406-0.47565-2.6851-0.95426-2.9878-1.0636l-0.55039-0.19877v-0.64425l2.0443-2.4922c1.1244-1.3707 2.2752-2.7304 2.5574-3.0215l0.51315-0.52934 0.27313 0.0878c0.32955 0.10588 2.0152 0.57942 3.7327 1.0486 0.69193 0.18902 1.7534 0.48069 2.3588 0.64815s1.3296 0.34688 1.6093 0.39872c0.27971 0.0518 0.58198 0.18271 0.67171 0.29083l0.16316 0.19659-0.16339 0.37295c-0.0899 0.20512-1.0654 1.8236-2.1679 3.5967l-2.0045 3.2237-0.31223 0.0283c-0.17173 0.0156-0.98449-0.22061-1.8061-0.52478zm59.888-0.32016c-0.13633-0.15626-0.51412-0.8856-0.83953-1.6208-0.32541-0.73516-0.82996-1.8512-1.1212-2.4802-0.29126-0.62895-0.52957-1.3142-0.52957-1.5227v-0.37911l2.3981-0.78765c1.319-0.43322 4.4998-1.4986 7.0686-2.3675 5.4964-1.8592 4.5979-2.0044 7.4311 1.2002l2.3024 2.6042-0.0481 0.24967-0.0481 0.24966-2.279 0.92287c-4.0065 1.6224-8.6672 3.075-12.189 3.7987-0.69054 0.14192-1.4002 0.29374-1.5769 0.33738l-0.32139 0.0793zm-88.563-1.4366c-0.14314-0.15817-0.26026-0.42602-0.26026-0.59523v-0.30765l1.1794-0.84348c1.4104-1.0086 1.4216-1.0941 0.29582-2.2512-1.0771-1.1072-1.0858-1.1073-2.4602-0.0393-1.2493 0.97068-1.4811 1.0271-1.9905 0.48484l-0.35705-0.38006 0.14298-0.2555c0.0786-0.14052 0.95232-0.85051 1.9415-1.5778s2.2706-1.6796 2.8475-2.1164c1.1882-0.89955 1.355-0.9387 1.8328-0.43017 0.49389 0.52572 0.45005 0.62313-0.68024 1.5114-1.243 0.9768-1.2432 0.98216-0.11337 2.1002 1.0956 1.0841 1.0781 1.0828 2.2671 0.16793l0.95046-0.73136 0.39729 0.14166c1.231 0.43893 0.99399 0.77019-2.3328 3.2604-2.9621 2.2172-3.22 2.3484-3.6604 1.8617zm133.81 0.15134c-0.0463-0.0749 0.0557-0.26281 0.2266-0.41751 0.56209-0.50868 0.32492-0.9787-0.36205-0.71751l-0.38474 0.14627-0.2576-0.25761-0.25761-0.2576-0.48368 0.28571c-0.59006 0.34856-2.1106 0.502-2.7005 0.27249l-0.43245-0.16826v-0.7409l0.76907-0.4116 1.1722 0.1902 0.52874-0.2509c1.1406-0.54126 1.6856-1.5612 1.1172-2.0908-0.48066-0.44781-0.62683-0.42043-2.4864 0.46563l-1.6502 0.78627h-1.2396l-0.52315-0.35382c-0.28772-0.1946-0.66944-0.65356-0.84825-1.0199l-0.32511-0.66608 0.19043-0.57702c0.55935-1.6948 2.9899-2.9671 4.4795-2.3447l0.54534 0.22785v0.63699l-0.47615 0.24623-0.47614 0.24622-0.52691-0.0989-0.5269-0.0988-0.47698 0.24666c-0.98944 0.51166-1.3856 1.3916-0.8462 1.8797 0.42379 0.38353 0.63662 0.3369 2.4012-0.52602l1.6078-0.78627h1.5109l0.53648 0.47104c0.29507 0.25907 0.62407 0.68248 0.73111 0.94091l0.19462 0.46986-0.10075 0.53706c-0.0554 0.29538-0.24042 0.71462-0.41113 0.93164-0.1707 0.21701-0.31037 0.51046-0.31037 0.65209v0.25752l1.0713-0.20098 0.32924 0.32925c0.46008 0.46008 0.41186 0.81649-0.18932 1.3992-0.50795 0.49232-0.95197 0.63762-1.1196 0.36637zm-118.09-3.4543c-0.0445-0.072-1.3932-1.1391-2.9971-2.3713-3.5064-2.6938-3.4846-2.1422-0.20352-5.1281 3.3064-3.009 2.7968-2.8516 4.7188-1.4577 0.88585 0.64239 1.9998 1.441 2.4755 1.7747 2.9331 2.0574 3.2298 1.2022-2.1687 6.252-1.0417 0.97446-1.6167 1.2676-1.8251 0.93049zm53.21-3.5995c-0.36548-0.25462-4.6998-3.7943-9.6685-7.896-1.2118-1.0003-2.5498-2.1018-2.9734-2.4478-0.42362-0.34596-1.6946-1.3876-2.8244-2.3148l-2.0542-1.6857-1.0267-0.30196c-0.56466-0.16608-1.2288-0.34837-1.4759-0.40509l-0.44923-0.10313 0.10926-0.72862 0.10927-0.72862-0.30363-0.24701c-2.9531-2.4025-2.9466-2.3992-3.3383-1.6672-0.10937 0.20435-0.32664 0.40497-0.48282 0.44581l-0.28396 0.0743-0.75802-0.50407c-0.41691-0.27724-1.9079-1.2007-3.3134-2.0521-2.9173-1.7673-2.8007-1.5993-1.7691-2.5496 0.43245-0.39836 0.78627-0.84624 0.78627-0.99528v-0.271l-1.345-1.1209c-1.541-1.2843-1.5098-1.278-3.2154-0.6491-1.7529 0.6463-1.5775 0.72015-3.9283-1.6539l-2.1048-2.1257 0.19275-0.19384c0.10601-0.10661 0.59659-0.2646 1.0902-0.35109l0.89744-0.15725 0.0452-0.31534 0.0452-0.31533-1.1403-0.9427c-0.62718-0.51849-1.2907-1.0274-1.4744-1.131l-0.33412-0.18829-1.072 0.15181c-1.4367 0.20345-1.4018 0.22511-2.7922-1.733-1.4975-2.109-1.5071-2.2095-0.20932-2.2095 0.91763 0 3.5884-0.4578 3.873-0.66388 0.15269-0.11056 1.8195-1.4748 3.704-3.0316s5.063-4.1751 7.0632-5.8184c3.4216-2.811 5.0902-4.1852 12.42-10.228 3.751-3.0924 5.595-4.6073 8.0313-6.5979 1.0586-0.8649 3.4228-2.8109 5.2538-4.3245 5.8876-4.867 4.608-4.6284 8.3374-1.5543 1.6866 1.3902 3.7034 3.0477 4.4818 3.6833 0.7784 0.63557 2.7598 2.265 4.4031 3.6209s3.9432 3.2504 5.1108 4.2099c5.2545 4.318 13.991 11.506 18.163 14.943 2.5082 2.0664 5.4272 4.4659 6.4868 5.3321l1.9264 1.575v0.5491l-1.1374 0.92205c-0.62557 0.50713-3.9692 3.2529-7.4303 6.1017s-6.9012 5.6794-7.6448 6.2902c-1.9593 1.6094-6.9852 5.7441-9.096 7.483-0.99985 0.82366-2.1222 1.7346-2.494 2.0244l-0.67613 0.52682 0.0479 0.24891c0.0263 0.1369 0.21923 0.28935 0.42858 0.33877l0.38065 0.0899 0.10765 0.3888c0.0592 0.21384 0.18349 0.70724 0.2762 1.0964 0.0927 0.38921 0.21281 0.82236 0.26689 0.96257l0.0983 0.25492-0.5138 0.5138-2.6189-0.0617c-3.163-0.0745-2.8726-0.17796-5.4245 1.9316-6.932 5.7304-8.2129 6.7776-8.2894 6.7776-0.0467 0-0.25992-0.12189-0.47377-0.27087zm-17.294-26.891c0.56218-0.13672 1.5529-0.5139 2.2016-0.83818l1.1794-0.5896 1.2936-1.138c0.71152-0.6259 1.3376-1.2764 1.3913-1.4455l0.0976-0.30751-0.44337-0.46279c-0.24386-0.25453-0.60054-0.50222-0.79263-0.55043l-0.34926-0.0877-0.52664 0.40168c-0.28964 0.22093-0.94823 0.5991-1.4635 0.84039l-0.93689 0.43872h-3.3023l-0.8649-0.42744c-1.6139-0.7976-2.9051-2.3802-3.4932-4.2816l-0.34316-1.1094-8e-3 -1.4264-8e-3 -1.4264 0.94524-1.8648 0.7008-0.35382c0.86632-0.43739 1.5004-0.44767 2.1768-0.0353l0.52054 0.31736 0.24205 0.57929 0.24204 0.57929-0.67814 1.3958 0.51155 0.52778c0.6825 0.70417 0.61318 0.72405 2.9988-0.86011 1.1495-0.76334 2.497-1.647 2.9943-1.9637l0.90421-0.57584v-0.73133l-0.47341-0.45355-0.4734-0.45356-0.55145 0.19941-0.55145 0.1994-0.58628-0.36497c-1.0191-0.63445-1.7998-0.92464-2.982-1.1084l-1.148-0.17847-1.4698 0.172-1.4698 0.17199-1.2123 0.50469c-3.1039 1.2922-5.5356 3.8003-6.3091 6.5076l-0.26586 0.93045 0.1342 3.4858 0.58401 1.2133 0.58402 1.2133 1.9938 1.9938 1.1917 0.58111c2.4058 1.1731 5.0987 1.4425 7.8157 0.78172zm12.332-0.55449 0.15195-0.43245-0.30252-0.8649-1.4066-0.1572-0.0498-0.26249c-0.0274-0.14437 0.13239-0.62204 0.35507-1.0615l0.40487-0.79897h7.0174l0.35739 0.76305c0.19657 0.41967 0.33178 0.89733 0.30047 1.0615l-0.0569 0.29842-0.39153 0.044c-0.21535 0.0242-0.55075 0.0786-0.74536 0.12094l-0.35382 0.0769v1.5606l0.35382 0.0864c0.19461 0.0475 2.3352 0.0666 4.757 0.0423l4.4031-0.0441v-1.7298l-0.39314-0.0544c-0.60552-0.0838-0.69804-0.21729-1.5739-2.2715-0.45025-1.056-0.91262-2.1323-1.0275-2.3917s-1.143-2.6655-2.2846-5.3466c-1.1417-2.6812-2.1456-4.9633-2.231-5.0714l-0.1552-0.19657h-2.5626c-3.2181 0-2.8737-0.21362-4.0141 2.49-0.53501 1.2685-1.273 3.0139-1.6399 3.8788-1.2112 2.8549-2.3856 5.6404-2.9834 7.0764-0.7005 1.6826-0.69181 1.6719-1.4518 1.7944l-0.5977 0.0964-0.0492 0.68444c-0.0271 0.37645-0.011 0.78407 0.0357 0.90582l0.0849 0.22137 5.8969-0.0856zm0.32154-6.1026c-0.0565-0.0915 0.35532-1.2414 0.91521-2.5554s1.0597-2.5129 1.1107-2.6643 0.20507-0.27519 0.34238-0.27519h0.24966l0.31583 0.74695c0.1737 0.41083 0.37885 0.88849 0.45588 1.0615 0.077 0.17298 0.32455 0.77448 0.55005 1.3367 0.22549 0.56219 0.51739 1.2571 0.64866 1.5442 0.13126 0.28715 0.19983 0.62328 0.15237 0.74696l-0.0863 0.22487h-4.5517zm22.336 5.6702v-0.8649l-0.62703-0.051c-0.34486-0.0281-0.71638-0.12519-0.82559-0.21583l-0.19856-0.16479v-8.5919l0.1596-0.0986c0.0878-0.0543 0.29815 0.0654 0.46749 0.26592 0.16934 0.2005 0.85824 1.03 1.5309 1.8432 1.9181 2.3191 2.2274 2.6896 3.835 4.5939 0.83119 0.98457 1.8844 2.2855 2.3404 2.8909 1.0562 1.4022 0.90982 1.3314 2.7609 1.3342l1.5804 2e-3 0.1887-0.18871 0.18871-0.1887v-14.366l0.19657-0.1626c0.10811-0.0894 0.40886-0.18654 0.66833-0.21582l0.47176-0.0532v-1.887l-5.3051-0.0864-0.43472 0.3608v0.65693c0 0.7623 0.21 1.0344 0.79846 1.0344 0.23159 0 0.50208 0.0976 0.60111 0.21695l0.18005 0.21694-0.0428 2.9545-0.0428 2.9545-0.17448 0.058c-0.096 0.0319-0.83613-0.74065-1.6448-1.7168-2.3777-2.8702-5.1947-6.1563-5.5346-6.4562l-0.31527-0.2782-6.7983 0.0846-0.0484 0.75917-0.0484 0.75918 0.18563 0.22366c0.10209 0.12302 0.3751 0.22367 0.60668 0.22367s0.50597 0.0849 0.60976 0.1887l0.18871 0.18871v12.479l-0.1972 0.16366c-0.10846 0.09-0.4446 0.18713-0.74696 0.21582l-0.54976 0.0522-0.0489 0.67996-0.0489 0.67995 0.18899 0.22772 0.189 0.22772 5.6955-0.0856zm24.626 23.963c-4.1476-3.681-4.2959-3.2972 3.1845-8.238 0.19642-0.12974 0.71612-0.50125 1.1549-0.82559 1.0573-0.78153 0.86094-0.83061 4.4918 1.123 1.7507 0.94197 3.59 1.912 4.0873 2.1557l0.90421 0.44302v0.51744l-4.9526 3.9544c-5.8965 4.708-4.68 4.5887-8.87 0.87007zm24.234 1.2583-2.7193-1.5037-0.25058 0.20797c-0.13782 0.11438-0.41875 0.47436-0.6243 0.79997l-0.37372 0.59201h-0.92852l-0.16943-0.31659c-0.20088-0.37533-0.30621-0.18883 1.6254-2.8781 1.533-2.1343 1.7301-2.3035 2.3174-1.9892 0.42701 0.22853 0.3799 0.56124-0.17945 1.2675-0.26599 0.33584-0.46059 0.72487-0.43245 0.8645l0.0512 0.25387 5.3466 2.9535 0.0536 0.25079c0.0579 0.2713-0.55175 1.0115-0.82792 1.0051-0.093-2e-3 -1.3928-0.68057-2.8885-1.5076zm-129.16-2.3019c-0.37504-0.31187-2.3398-3.359-2.3398-3.6288 0-0.21479 1.813-1.696 3.942-3.2206l0.71829-0.51437 0.22524 0.0942c0.19016 0.0795 2.2269 2.5262 2.9701 3.568l0.22882 0.32073-0.40776 0.33413c-0.22426 0.18378-1.0703 0.75331-1.88 1.2656-0.80972 0.51232-1.8334 1.1669-2.2748 1.4546-0.91926 0.59919-0.87048 0.58571-1.1822 0.32654zm134.08-2.2465c-0.69192-0.20112-2.3396-0.67968-3.6616-1.0635-2.7548-0.79975-2.6134-0.72151-2.4715-1.3676l0.10841-0.49356 0.33901-0.12664 0.33901-0.12663 0.39314 0.15277c0.41683 0.16199 3.3755 1.0308 5.3466 1.57 0.64867 0.17746 1.277 0.41352 1.3964 0.52457l0.21696 0.20192-0.10088 0.4019c-0.0555 0.22105-0.22387 0.46727-0.37421 0.54715l-0.27334 0.14523zm-50.125-2.2911-0.2752-0.15632v-2.9536l0.19657-0.12722c0.10812-0.07 1.2227-0.20561 2.4768-0.30143l2.2802-0.17421 0.52789 0.26882 0.17469 0.9047c0.0961 0.49759 0.20435 1.0468 0.24059 1.2205 0.0362 0.1737 4e-3 0.41521-0.0706 0.53669l-0.13651 0.22088-2.2551 0.28212c-1.2403 0.15516-2.3966 0.31661-2.5696 0.35877-0.17298 0.0422-0.43834 6e-3 -0.5897-0.0797zm41.861-0.22871-0.20357-0.24528 0.14784-0.42306 0.14783-0.42305 1.0186-0.0988 0.0954 0.24875c0.0525 0.13682 8e-3 0.45977-0.0988 0.71769l-0.19424 0.46894h-0.3548c-0.19514 0-0.44641-0.11037-0.55836-0.24527zm10.19-1.9689c-0.55276-0.32195-0.17729-1.4027 0.48731-1.4027 0.14756 0 0.42557 0.11016 0.61779 0.2448 0.90262 0.63222-0.13717 1.7217-1.1051 1.1579zm-43.016-1.4744c-1.107-1.4802-1.3097-1.3504 3.6252-2.3221l0.90596-0.17839 1.8836 0.90026v0.51323l-2.3981 0.90933c-1.319 0.50014-2.6134 0.94379-2.8766 0.9859l-0.47842 0.0766zm-97.373-1.7067v-2.0929l0.19656-0.25923c0.18703-0.24666 2.9472-1.4749 3.6955-1.6444l0.35382-0.0802 0.011 0.2149c0.0102 0.19875 6e-3 2.8652-6e-3 3.4674l-5e-3 0.26464-1.376 0.82436c-0.75679 0.4534-1.5447 0.9535-1.751 1.1113-0.20627 0.15784-0.5424 0.28698-0.74696 0.28698h-0.37192zm126.75 0.89602c-0.56219-0.29063-2.6143-1.2669-4.5603-2.1695-1.946-0.9026-3.6049-1.747-3.6866-1.8765l-0.1485-0.23543 0.93465-1.0731c0.51406-0.59022 1.3238-1.5045 1.7996-2.0318 0.47569-0.52727 1.3471-1.5008 1.9365-2.1634l1.0716-1.2047h0.32174c0.17696 0 1.1454 0.25207 2.1522 0.56018 1.0067 0.3081 2.4319 0.7417 3.1671 0.96356 0.73516 0.22187 1.9735 0.60667 2.752 0.85511 0.77841 0.24845 1.4951 0.45172 1.5926 0.45172 0.0975 0 0.25955 0.0991 0.36006 0.2202l0.18275 0.2202-2.4666 3.1215c-3.0399 3.8471-3.9722 4.9356-4.2055 4.9102-0.0996-0.0108-0.64098-0.2575-1.2032-0.54813zm-20.443-2.3683c-0.47569-0.39509-0.88657-0.84425-0.91306-0.99814l-0.0482-0.27981 1.1348-0.88796c1.2634-0.98851 1.2057-0.98724 2.4608-0.0537 1.4383 1.0697 1.4372 0.97362 0.0228 2.0803-1.3435 1.0512-1.5466 1.0618-2.6572 0.13934zm5.0332-4.1169-1.1783-0.58483-0.1044-0.54166 1.1404-1.263 1.1404-1.263 0.20838 0.08c0.46017 0.17658 1.9373 1.3995 1.9373 1.6038 0 0.25016-1.6844 2.5796-1.8539 2.5639-0.0615-6e-3 -0.64199-0.27353-1.2901-0.59519zm-110.52-0.52325-0.19214-0.19215v-2.7076l0.19657-0.26498c0.10811-0.14573 0.86586-0.47414 1.6839-0.7298l1.4873-0.46483 0.20317 0.16861 0.20316 0.16862-2e-3 1.2781c-3e-3 1.5969 0.044 1.5336-1.651 2.2242-0.77718 0.31668-1.4858 0.60641-1.5747 0.64385-0.0889 0.0374-0.24814-0.0184-0.35382-0.12407zm270.15-5.244-0.46245-0.38913h-13.389l-0.16279-0.30417c-0.4388-0.81991-0.10037-1.5829 0.70211-1.5829 0.26812 0 0.5724-0.0849 0.67619-0.1887l0.18871-0.18871v-12.612l-0.18871-0.1887c-0.10379-0.10379-0.40808-0.1887-0.67619-0.1887-0.63636 0-0.8649-0.24932-0.8649-0.94353 0-0.31136 0.08492-0.65103 0.1887-0.75482l0.18871-0.1887h10.765l0.24711 0.24711c0.28342 0.28342 0.32184 0.89196 0.08433 1.3358l-0.16279 0.30418h-1.086c-0.59728 0-1.1228 0.0596-1.1678 0.13245-0.12953 0.20959-0.13595 12.724-0.0066 12.934l0.11616 0.18796 3.1787-0.18 1.4563-0.62424 0.39311-0.52447c0.21621-0.28847 0.43944-0.67731 0.49608-0.8641 0.05663-0.1868 0.20263-0.42234 0.32445-0.52343l0.22148-0.18381 1.7464 0.2182v2.2964l-0.16664 0.0555c-0.09165 0.0305-0.20806 0.60306-0.25866 1.2722-0.11023 1.4574-0.22066 1.6206-1.1792 1.7419l-0.73966 0.0936zm-78.805-0.62075c-0.52153-0.62842-0.18845-1.6554 0.53689-1.6554h0.52185l0.2051-0.24713 0.20511-0.24714-0.024-6.2864c-0.0262-6.8716 5e-3 -6.5849-0.71083-6.5883-0.64737-3e-3 -0.84535-0.1384-0.97843-0.66865l-0.10842-0.43202 0.25683-0.39199 0.25685-0.39198h9.8369l0.18871 0.1887c0.24677 0.24676 0.24208 1.0964-8e-3 1.4244l-0.19657 0.25791-1.258 0.0946-0.0822 12.858 0.17829 0.21483c0.0981 0.11816 0.41481 0.21483 0.70389 0.21483h0.52561l0.17718 0.33107 0.17718 0.33106-0.0973 0.51865c-0.13493 0.71923-0.0368 0.70627-5.3504 0.70627h-4.7641zm14.345 0.0351c-0.28382-0.35477-0.36372-0.85557-0.20365-1.2766l0.15737-0.41391h0.54305c0.29868 0 0.65425-0.1112 0.79016-0.24711l0.24712-0.24712v-12.264l-0.32558-0.60834-0.50554-2e-3c-0.73154-4e-3 -0.91004-0.17914-0.93978-0.92476l-0.0265-0.66369 0.4607-0.29138 9.4914-4e-3 0.24711 0.24711c0.65767 0.65767 0.2251 1.586-0.77703 1.6675l-0.62703 0.051-0.0436 2.2409-0.0436 2.2409h0.30408c0.16724 0 1.036-0.54929 1.9307-1.2207 0.89463-0.67136 2.1396-1.5921 2.7667-2.0461 1.3017-0.94239 1.3465-1.0459 0.5897-1.3622l-0.55039-0.22997v-0.60559c0-0.33307 0.0849-0.69051 0.18871-0.79429l0.1887-0.18871h6.6766l0.24711 0.24711c0.61364 0.61364 0.13757 1.6399-0.76073 1.6399h-0.51361l-2.2545 1.6119c-1.24 0.88652-2.3201 1.7196-2.4003 1.8512l-0.14582 0.23938 2.2627 3.2202c1.2445 1.7711 2.7108 3.8758 3.2584 4.6771 1.1106 1.625 1.1207 1.6343 1.8933 1.7599l0.55271 0.0898 0.30264 0.86054-0.152 0.43245-0.152 0.43245-7.7352 0.084-0.32649-0.27789c-0.17957-0.15285-1.2599-1.8347-2.4007-3.7375-2.6582-4.4336-2.6691-4.4452-3.4198-3.646l-0.34192 0.36396v5.0276l0.18871 0.1887c0.10378 0.10379 0.41973 0.18871 0.70211 0.18871h0.5134l0.16279 0.30417c0.23752 0.4438 0.1991 1.0523-0.0843 1.3358l-0.24712 0.24711h-9.5315zm24.898-0.0506c-0.6287-0.6287-0.23148-1.5783 0.69704-1.6664l0.54976-0.0522 0.94352-1.8921c0.51894-1.0406 1.6118-3.3051 2.4285-5.0321 4.4746-9.4617 3.449-8.2454 6.9546-8.2484 3.4334-3e-3 3.1361-0.14296 4.1304 1.945 0.4578 0.96143 1.2578 2.6326 1.7778 3.7137 0.51999 1.0811 1.282 2.6733 1.6933 3.5382 2.9529 6.2092 2.8646 6.0543 3.4514 6.0543 0.49337 0 0.71472 0.30024 0.71472 0.96945v0.59203l-0.30417 0.16279-0.30417 0.16278-4.7673-2e-3c-5.1432-3e-3 -5.0686 8e-3 -5.2298-0.73532l-0.10885-0.50186 0.33733-0.63031 1.4892-0.0958 0.05434-0.28601c0.02987-0.15731-0.14638-0.67114-0.39172-1.1418l-0.44606-0.85583-3.9991 0.0411-3.9991 0.041-0.45148 0.76857c-0.24831 0.42272-0.43013 0.91807-0.40405 1.1008l0.04742 0.3322 1.5725 0.1572 0.04893 0.67995 0.04892 0.67995-0.18612 0.22427-0.18612 0.22425h-5.9147zm12.455-6.5243c0.0259-0.13494-0.3711-1.1256-0.88225-2.2016-0.51115-1.0759-1.0759-2.2923-1.255-2.7032l-0.32562-0.74695h-0.50769l-0.67602 1.4546c-0.37181 0.80003-0.93382 1.9754-1.2489 2.612-0.31509 0.63654-0.57289 1.3282-0.57289 1.5369v0.3796l5.4212-0.086zm-131.73 6.0747c-0.10266-0.1237-0.1644-0.49521-0.13719-0.82558l0.0495-0.60068 0.62265-0.2033c0.34245-0.11182 0.64563-0.22629 0.67373-0.25439 0.052-0.052 0.39451-2.3727 0.97691-6.6188 0.17795-1.2973 0.43663-3.1433 0.57486-4.1021s0.22558-1.8787 0.1941-2.0443l-0.0572-0.30106-1.4125-0.1572-0.05-0.70194-0.05-0.70195 0.55324-0.40454h3.338c4.135 0 3.5475-0.35727 5.3888 3.2774 0.86137 1.7003 1.7616 3.4629 2.0004 3.917l0.43431 0.82559h0.5345l1.8975-3.1844c1.0436-1.7514 2.0428-3.513 2.2204-3.9145 0.4193-0.94824 0.3001-0.92108 4.0417-0.92108h3.2212l0.60834 0.32558v0.59203c0 0.73766-0.22251 0.96878-0.93566 0.97185-0.30704 1e-3 -0.65612 0.0644-0.77574 0.14016l-0.21749 0.13774 0.33548 2.9656c0.34047 3.0097 0.877 7.459 1.0857 9.0032l0.11461 0.84814 0.23588 0.11631c0.12973 0.064 0.44818 0.17896 0.70764 0.25551l0.47177 0.13919 0.0495 0.59781c0.0272 0.3288-0.0345 0.69902-0.1372 0.82272l-0.18665 0.22491h-9.5639l-0.10515-0.274c-0.0578-0.1507-0.10514-0.50928-0.10514-0.79686v-0.52287l0.22802-0.14425c0.12541-0.0793 0.48472-0.14534 0.79847-0.14666 0.31375-1e-3 0.64798-0.0958 0.74274-0.21001l0.1723-0.2076-0.15939-1.876c-0.0877-1.0318-0.22671-2.4775-0.309-3.2127-0.0823-0.73516-0.15129-1.7966-0.15332-2.3588-2e-3 -0.56218-0.068-1.1238-0.14656-1.2479l-0.14286-0.22577-0.26232 0.2177c-0.52697 0.43735-2.684 5.087-3.3549 7.2316-0.43135 1.379-0.64522 2.17-0.74406 2.752-0.0588 0.34596-0.17704 0.71747-0.26285 0.82558l-0.156 0.19657h-2.9383l-0.14026-0.27519c-0.0771-0.15136-0.22742-0.73517-0.33395-1.2974-0.40619-2.1437-1.0226-3.9762-2.486-7.391-0.80102-1.8691-0.93301-2.0768-1.2774-2.0105l-0.24543 0.0473-0.27334 2.0431c-0.15034 1.1237-0.34797 2.68-0.4392 3.4584-0.0912 0.77841-0.2465 1.7843-0.34507 2.2354l-0.17922 0.82011 0.20031 0.24135 0.2003 0.24136h0.65694c0.82663 0 1.0344 0.20821 1.0344 1.0368v0.65937l-0.24874 0.0955c-0.13681 0.0525-1.508 0.0954-3.0472 0.0954h-2.7985zm30.818-0.0793c-0.43051-0.80442 0.0195-1.5829 0.91496-1.5829h0.50258l0.28018-0.73692-0.0443-6.1627c-0.0244-3.3895-0.0905-6.2089-0.1469-6.2654-0.0564-0.0564-0.4004-0.14258-0.76436-0.19142l-0.66176-0.0888-0.14274-0.40624-0.14273-0.40625 0.43958-0.91731 16.707-0.0762 0.1816 0.21881 0.18159 0.2188-0.0908 2.9409-2.0035 0.0946-0.22652-0.3234c-0.12458-0.17787-0.44738-0.43762-0.71733-0.57721l-0.49081-0.25381-4.5084-0.33901-0.44722 0.45529-0.0394 1.5529-0.0394 1.5529 0.54396 0.39774 5.0354 0.0372 0.29371-0.15719c0.16154-0.0865 0.34115-0.37316 0.39913-0.63713l0.10541-0.47993 2.0949 0.0924 0.0443 2.0428 0.0443 2.0428-0.27092 0.1981c-0.14901 0.10889-0.57078 0.19803-0.93728 0.19803h-0.66635l-0.24712-0.24711c-0.13591-0.13592-0.24711-0.34572-0.24711-0.46624 0-0.4208-0.58748-0.52415-3.0448-0.53564l-2.475-0.0116-0.61305 0.3281v6.4431l0.71024 0.32361 3.2997-0.2832 0.92878-0.3774c0.92459-0.3757 1.0033-0.4517 1.3347-1.2891l0.1741-0.43996 1.9656 0.0936 0.0443 1.9436 0.0443 1.9436-0.36298 0.43736h-16.777zm23.15 0.12802c-0.10811-0.1107-0.19657-0.42126-0.19657-0.69014 0-0.26889 0.0885-0.60495 0.19657-0.7468l0.19657-0.25792 1.258-0.0946 0.0822-12.858-0.17829-0.21483c-0.0981-0.11815-0.40315-0.21482-0.67797-0.21482-0.84904 0-1.2376-1.0323-0.62075-1.6492l0.25634-0.25635 4.6579 0.0321c11.503 0.0792 15.215 1.4698 16.693 6.2538l0.30886 0.99941v2.2481l-0.30766 1.0758c-0.88442 3.0927-3.7237 5.2992-7.9482 6.1769l-1.258 0.26138-12.266 0.1368zm11.159-2.3506c1.068-0.41774 1.9103-1.2399 2.4863-2.4267l0.4579-0.94353 0.17381-1.3512 0.17381-1.3512-0.15928-1.4267-0.15928-1.4266-0.40257-0.79442c-0.76807-1.5157-1.9929-2.3817-3.6447-2.5771l-0.8047-0.0952-0.67078 0.46983v11.441l0.15336 0.40338 0.15336 0.40337h0.70572c0.38814 0 1.0798-0.14634 1.5371-0.32521zm-173.38 1.6254c-0.32916-0.0342-0.63603-0.16005-0.68192-0.27964l-0.0834-0.21744 0.88446-1.0947c0.95983-1.188 1.0987-1.281 1.9125-1.281h0.54247l0.0824 0.21467c0.19755 0.5148-1.3112 2.8008-1.8128 2.7467-0.13482-0.0145-0.51445-0.0544-0.84362-0.0886zm2.7767-5.4716-0.0921-0.24003 1.3903-1.4505c1.4326-1.4946 1.9379-1.8021 2.6624-1.6203l0.42022 0.10547-0.0738 0.28224c-0.12973 0.49608-2.0701 2.9842-2.3966 3.0732-0.17298 0.0471-0.65286 0.0866-1.0664 0.0878l-0.7519 2e-3zm105.07-5.9333c-1.1138-0.54651-2.0558-2.2124-1.4159-2.504l0.3925-0.17884 0.31408 0.28424c0.17275 0.15634 0.599 0.65355 0.94722 1.1049l0.63314 0.82066-0.0938 0.24455c-0.12773 0.33287-0.40079 0.41313-0.77717 0.22845zm-98.624-0.36331c-0.14155-0.36888 2.4148-2.1124 3.0972-2.1124 1.0296 0 0.69432 0.71534-0.75539 1.6118l-1.2079 0.74696h-1.0393zm5.168-1.5148-0.18871-0.1887v-2.7292l0.437-0.36268 4.0448 0.0882 0.0908 2.9409-0.18262 0.22005-0.18262 0.22004h-3.83zm88.581-3.2805c-1.1362-0.93729-1.3372-1.7202-0.44158-1.7202 0.75314 0 2.573 2.2012 2.0013 2.4206-0.43498 0.16692-0.59577 0.0947-1.5597-0.70043zm87.949-0.3206-0.27083-0.15229 0.0181-1.555c0.01-0.85524 0.0736-1.6447 0.14134-1.7543l0.1232-0.19934 3.9323-0.0778 0.38628 0.46544-0.063 3.2001-0.17107 0.10573c-0.26791 0.16558-3.7939 0.13759-4.0964-0.0325zm-66.069-2.1463-2.3372-0.0482-1.6408-1.4284c-0.90245-0.78563-1.614-1.509-1.5812-1.6076l0.0596-0.17914 5.3903-0.086 0.67287 0.5843c1.2907 1.1208 2.4813 2.3238 2.4813 2.5071 0 0.18247-0.39903 0.40815-0.60257 0.34079-0.0578-0.0191-1.1568-0.0564-2.4422-0.0829zm-110.46-0.70002-0.18871-0.1887v-2.4147l0.437-0.36268 4.0448 0.0882 0.0458 1.402 0.0458 1.402-0.20306 0.12884c-0.11169 0.0709-1.0558 0.12992-2.098 0.13124l-1.8949 2e-3zm6.5776-0.19914c-0.34277-0.41302 1.6138-1.6328 2.7476-1.7129l0.31451-0.0222 0.0498 0.35032 0.0498 0.35033-1.3502 0.63251c-1.5232 0.71356-1.5482 0.71913-1.8115 0.40192zm77.452-1.1159c-1.1534-0.97851-1.1899-1.0583-0.64643-1.4144l0.38469-0.25205 0.22907 0.13048c1.1336 0.64573 2.2437 2.1222 1.7406 2.3152-0.4779 0.18339-0.68415 0.0893-1.708-0.7793zm-72.393-1.3583c-0.33088-0.33088-0.20509-0.59353 0.401-0.83724 0.32434-0.13043 1.1826-0.51336 1.9072-0.85097 0.72463-0.3376 1.4183-0.57513 1.5416-0.52785l0.22405 0.086-0.0476 0.3338-0.0476 0.33381-1.5725 0.81958c-1.6213 0.84498-2.081 0.96783-2.406 0.64289zm67.052-2.0251-1.0548-0.79849 0.0485-0.24612c0.0266-0.13537 0.1658-0.31999 0.30917-0.41027l0.26068-0.16415 1.2726 0.83545c1.3074 0.85837 1.4971 1.1363 0.96838 1.4193-0.50213 0.26872-0.70345 0.1978-1.8045-0.63571zm23.01-4.3e-4c-1.5234-0.91974-1.7949-1.1484-1.6472-1.3876l0.10651-0.17234h4.8205l0.92213 0.62295c0.50718 0.34263 1.1282 0.79088 1.38 0.99613l0.45782 0.37317-0.11328 0.18328-0.11327 0.18329h-4.4899zm-99.59-0.70786c-0.0525-0.13681-0.0955-0.68877-0.0955-1.2266v-0.97784l0.1887-0.1887 0.1887-0.18871h3.83l0.37127 0.44737-0.18017 0.99503c-0.0991 0.54728-0.2534 1.0835-0.3429 1.1916l-0.16272 0.19657h-3.7019zm16.102-0.8299v-0.29239l1.5332-0.4947c1.6571-0.53468 2.0074-0.58641 2.1716-0.32073 0.22631 0.36617-2.1924 1.4002-3.2752 1.4002h-0.42962zm55.512-1.3781c-1.1551-0.6307-1.3001-0.78976-1.0854-1.1909 0.19566-0.3656 0.68944-0.36142 1.2172 0.0103 0.22958 0.16169 0.7226 0.44845 1.0956 0.63725l0.67818 0.34327-0.0492 0.34559-0.0492 0.3456-0.39314 0.0332c-0.21622 0.0183-0.8526-0.21766-1.4142-0.52428zm20.914-0.93483c-0.56219-0.38497-1.0222-0.78774-1.0222-0.89506v-0.19511l1.7298-0.0457c2.1549-0.057 4.01 0.69786 4.01 1.6317v0.2225l-3.6955-0.018zm-87.308-0.52521c-0.57967-0.0513-1.1386-0.17802-1.2421-0.28169l-0.18815-0.1885 0.23816-0.36189c0.13099-0.19904 0.53236-0.73341 0.89194-1.1875l0.65376-0.82558h0.33986c0.53685 0 2.2244 0.49553 2.474 0.7265l0.22652 0.20954-1.0259 1.0259c-0.56424 0.56425-1.0908 1.0148-1.17 1.0012-0.0793-0.0136-0.61843-0.0667-1.1981-0.11794zm60.839-1.7609-1.5437-0.77694 0.0498-0.35023 0.0498-0.35022 0.32431-0.0464c0.17837-0.0255 1.0484 0.291 1.9334 0.70336l1.6091 0.74975-0.0464 0.39742-0.0464 0.39741-0.39314 0.0264c-0.21622 0.0145-1.0878-0.32323-1.9368-0.75056zm21.165-0.28986c-1.9575-0.29152-2.0262-0.32079-1.7899-0.76243 0.28553-0.53351 2.8977-0.35526 4.577 0.31232l0.39262 0.15609-0.37073 0.3002c-0.42606 0.345-0.45132 0.34495-2.809-6e-3zm-78.24-1.9944c-0.23222-0.12167-0.49327-0.35399-0.58012-0.51627l-0.1579-0.29504 0.19326-0.14831c0.67192-0.5156 2.1819-1.3 2.5025-1.3h0.38103l1.0697 1.1037-0.22882 0.21925c-0.18962 0.18171-1.5152 0.75002-2.5153 1.0784-0.13319 0.0437-0.43216-0.0201-0.66438-0.14171zm70.302 0.12018c-0.6663-0.0548-1.292-0.18048-1.3906-0.2793l-0.17909-0.17969 0.17636-0.32953c0.29403-0.54941 4.3226-0.3294 4.9208 0.26873l0.18429 0.18429-0.38318 0.38318-1.0586 0.0259c-0.58222 0.0143-1.6037-0.0188-2.27-0.0736zm-8.8746-0.88589c-0.0498-0.12973-0.0498-0.34203 0-0.47177l0.0905-0.23587h4.0985v0.30897c0 0.49916-0.50213 0.63455-2.3534 0.63455h-1.7451zm-7.9163-0.31053-0.19907-0.23986 0.39813-0.47971 4.7512 0.0866v0.78628l-4.7512 0.0866zm-48.11-1.3165c-0.0936-0.17489-0.17017-0.53667-0.17017-0.80397v-0.48599l0.35382-0.13113c0.1946-0.0721 1.0465-0.22487 1.8932-0.33945l1.5393-0.20832 0.30354 0.30403c0.16694 0.16721 0.32341 0.47092 0.3477 0.67491l0.0442 0.37088-0.23588 0.12218c-0.12974 0.0672-0.90815 0.24352-1.7298 0.39183s-1.6473 0.30416-1.8348 0.34633l-0.3409 0.0767zm6.2617-1.8513-0.18023-0.21716 0.19577-0.23588 0.19576-0.23588h2.7536l0.19576 0.23588 0.19577 0.23588-0.36046 0.43432h-2.8157zm5.8616-0.51125-0.20824-0.13202 0.051-0.53391 0.051-0.5339 3.5217-0.0888 0.16494 0.30819c0.17326 0.32375 0.07 0.80136-0.2156 0.9969-0.23355 0.15992-3.1088 0.14583-3.3648-0.0165zm6.7289-0.50223-0.1737-0.32456 0.37484-0.45166h2.8864l0.18871 0.1887c0.24869 0.24869 0.23818 0.36838-0.0584 0.66496l-0.24711 0.24712h-2.797z" fill="#e67817" stroke-width=".44576"/></g></svg>
