<?xml version="1.0" encoding="UTF-8"?>
<!-- Created with Inkscape (http://www.inkscape.org/) -->
<svg width="156.58mm" height="96.136mm" version="1.1" viewBox="0 0 156.58 96.136" xml:space="preserve" xmlns="http://www.w3.org/2000/svg"><g transform="translate(117.32 -184.14)"><path d="m-50.202 280.08c-1.0073-0.24381-2.0438-0.83339-2.8071-1.5966l-0.65739-0.65738-0.42693-0.86437c-0.23481-0.4754-0.51538-1.1639-0.62348-1.5299l-0.19655-0.66554-0.1614-13.795-0.14308-0.34064c-0.0787-0.18736-0.14308-0.37795-0.14308-0.42353 0-0.0456 1.1681-0.0829 2.5958-0.0829h2.5958l0.04003 6.4134 0.04003 6.4134 0.20661 0.61549c0.284 0.84606 0.83327 1.564 1.4477 1.8921l0.5159 0.27556h2.9042l0.59539-0.27458c0.32747-0.15102 0.83116-0.46778 1.1193-0.7039l0.52392-0.4293v-14.142h4.9613v9.3612c0 5.1486 0.03462 9.6138 0.07695 9.9226l0.07695 0.56142h-5.1152v-1.6937l-0.59084 0.42447c-0.76494 0.54956-1.9972 1.105-2.9495 1.3296l-0.75539 0.17811-1.2101-8e-3c-0.66554-5e-3 -1.5295-0.0856-1.9199-0.1801zm34.501-0.0196-2.2689-0.0358-0.0021-5.8964-0.0021-5.8964-0.17029-0.80341c-0.09366-0.44189-0.29089-1.0838-0.43828-1.4264l-0.268-0.62297-0.54458-0.47936c-0.67335-0.59271-1.2763-0.76383-2.4469-0.69441l-0.90755 0.0538-1.4521 0.68497-1.6484 1.6676 0.03764 6.7092 0.03764 6.7092-4.9008-1e-4v-19.845h4.8403v0.78654c0 0.4326 0.01914 0.78655 0.04256 0.78655 0.02339 0 0.41033-0.24155 0.85982-0.53677 0.9671-0.6352 2.025-1.0783 3.0612-1.2822l0.75125-0.14779 2.7271 0.123 0.71627 0.25685c1.9465 0.69799 3.439 2.288 4.1498 4.421l0.32577 0.97754 0.14346 13.553 0.13828 0.32102c0.07606 0.17655 0.19609 0.35674 0.26675 0.40041 0.27084 0.16739 0.10964 0.30599-0.3253 0.27972-0.24958-0.0151-1.4748-0.0435-2.7227-0.0632zm-28.104-34.23c-2.1857-0.0976-9.5899-0.53632-9.9831-0.59156-0.23294-0.0327-1.322-0.1416-2.4201-0.24194-20.022-1.8294-38.481-7.4379-48.944-14.872l-1.2071-0.85759 3.3823-0.145 1.2145-0.31619c0.668-0.1739 1.4749-0.43135 1.7931-0.5721l0.57854-0.25592 0.22194 0.16056c1.4269 1.0323 2.7062 1.89 3.7533 2.5164 3.4939 2.0902 7.8139 4.062 12.344 5.6344 0.69882 0.24254 1.5973 0.54242 1.9966 0.66638 2.3568 0.73165 2.9694 0.91134 4.7798 1.402 43.17 11.702 101.74 0.58045 107.48-20.406l0.28061-1.0273v-3.8722l-0.28061-1.0273c-3.7319-13.662-29.392-23.696-64.095-25.063l-3.5092-0.13825-3.6302 0.0768c-13.669 0.28927-25.283 1.7822-35.889 4.6135-2.6354 0.7035-7.2903 2.1658-8.7019 2.7336-0.29949 0.12047-1.0618 0.41789-1.6941 0.66096-4.5909 1.7649-8.856 4.0638-12.757 6.8765l-0.14889 0.10734-0.81489-0.32601c-1.5241-0.60973-3.7414-1.037-5.3856-1.0379l-0.65334-3.4e-4 0.95436-0.68476c4.8432-3.4751 12.084-6.8359 19.895-9.235 0.69882-0.21463 1.5973-0.49096 1.9966-0.61408 6.7696-2.0872 18.161-4.1988 27.045-5.0133 1.0981-0.10068 2.1872-0.20977 2.4201-0.24242 0.23294-0.0327 2.3566-0.18019 4.7193-0.32786l4.2957-0.26848 13.553-0.01 2.3596 0.15407c1.2978 0.0847 3.2037 0.20881 4.2352 0.27572 3.7542 0.24352 9.9699 0.90334 13.069 1.3873 5.1063 0.79749 8.5428 1.4312 11.556 2.1311 22.932 5.3262 36.878 14.134 39.019 24.644l0.24735 1.2138v2.1021l-0.24735 1.2138c-0.46603 2.2868-1.3421 4.2592-2.809 6.3242l-0.86134 1.2126-1.7016 1.6967c-7.1003 7.0797-19.999 12.687-37.157 16.152-6.4471 1.3021-14.473 2.3548-21.176 2.7776-1.1314 0.0714-2.9011 0.1871-3.9327 0.25722-1.832 0.12451-13.264 0.24234-15.186 0.15651zm-63.529-18.494c-0.19966-0.0885-0.66252-0.22948-1.0286-0.31325-0.36605-0.0838-0.74722-0.19372-0.84705-0.24434-0.0998-0.0506-0.56268-0.2722-1.0286-0.49241s-0.9015-0.44387-0.96806-0.49701c-0.0665-0.0531-0.46133-0.32062-0.8773-0.59438-0.41596-0.27376-0.75629-0.5449-0.75629-0.60255 0-0.0576-0.0747-0.10481-0.1661-0.10481-0.2861 0-2.496-2.6467-2.496-2.9894 0-0.0683-0.0966-0.25403-0.21467-0.41275s-0.36972-0.64253-0.55923-1.0751c-0.1895-0.4326-0.38638-0.87147-0.43751-0.97527-0.0511-0.1038-0.15708-0.49763-0.23546-0.87519-0.0784-0.37756-0.1933-0.71786-0.25537-0.75622l-0.11287-0.0698v-4.6907l0.11287-0.0697c0.0621-0.0384 0.17688-0.38191 0.25513-0.76344 0.0782-0.38152 0.181-0.74813 0.22835-0.81468 0.0474-0.0666 0.16169-0.36605 0.25408-0.66554 0.0924-0.29949 0.19749-0.57176 0.23356-0.60503 0.0361-0.0333 0.22385-0.37715 0.41729-0.76416 1.3953-2.7915 5.6704-6.1332 7.8463-6.1332 0.12976 0 0.40751-0.0785 0.61723-0.1745 0.76614-0.35062 4.2968-0.39988 4.7376-0.0661 0.0665 0.0504 0.31159 0.12726 0.54453 0.17079 1.6155 0.30189 4.2352 1.5798 4.2352 2.0659 0 0.0905-0.17561 0.30194-0.39024 0.46991l-0.39024 0.30541-0.18454-0.1612c-0.1015-0.0887-0.62017-0.36425-1.1526-0.61242-1.4472-0.67456-1.6705-0.75672-2.4806-0.91265-0.29949-0.0576-0.77544-0.15461-1.0576-0.21549l-0.51313-0.11068-0.12279 0.14796-0.1228 0.14796 0.0309 11.18 0.0309 11.18 0.30252-0.0187c0.71394-0.044 2.0106-0.30333 2.3412-0.46821 0.197-0.0983 0.42076-0.17868 0.49725-0.17868 0.25108 0 2.054-0.92411 2.4429-1.2522 0.52119-0.43962 1.1388-0.1805 1.1284 0.4734l-0.0037 0.23422-0.51054 0.37947c-0.43056 0.32004-0.91173 0.5829-2.5072 1.3697-0.0998 0.0492-0.481 0.15798-0.84705 0.24167-0.36604 0.0837-0.84436 0.22814-1.0629 0.32099l-0.39738 0.16883-4.1665-0.016zm2.209-12.351 0.0309-11.237-0.12164-0.12164-0.12164-0.12163-0.1163 0.11629-0.11629 0.1163 0.0755 11.286 0.0755 11.286 0.26303-0.0876zm-5.3042 9.113c-0.48905-0.5512-0.89741-1.0175-0.90747-1.0362-0.0439-0.0818-0.7752 0.40911-0.77175 0.51806 4e-3 0.12667 1.3515 1.109 1.4332 1.0448 0.0258-0.0203 0.082 0.0198 0.12491 0.0892 0.0883 0.14283 0.89236 0.50388 0.96373 0.43273 0.0256-0.0255-0.35357-0.49739-0.84262-1.0486zm3.8817 0.51042c0-0.0666-0.0577-0.12101-0.12815-0.12101-0.0705 0-0.0945 0.0545-0.0534 0.12101 0.0411 0.0666 0.0988 0.121 0.12815 0.121 0.0293 0 0.0534-0.0545 0.0534-0.121zm-1.8165-0.55525 0.11717-0.11717-0.27137-0.6621c-0.14925-0.36415-0.31662-0.73336-0.37193-0.82044l-0.10056-0.15835-0.38175 0.0798c-0.20996 0.0438-0.46037 0.15482-0.55645 0.2466l-0.17469 0.16686 0.29332 0.33527c0.99748 1.1401 1.1425 1.2333 1.4463 0.92958zm1.6251-0.72827 0.1914-0.0735v-0.7736c0-0.42548-0.0446-0.7736-0.099-0.7736-0.23083 0-1.3532 0.37972-1.3551 0.45846-1e-3 0.0473 0.12138 0.34261 0.27227 0.65615l0.27434 0.57008 0.26237 5e-3c0.1443 3e-3 0.3485-0.0284 0.45378-0.0687zm-5.8026-0.97753 0.42763-0.20392v-0.28239c0-0.15532-0.15483-0.57255-0.34408-0.92718-0.31923-0.59823-0.50467-1.0531-0.54925-1.3473-0.0236-0.15539-0.34012-0.12994-1.1368 0.0914-0.7995 0.2221-0.83081 0.25587-0.58509 0.63089 0.11038 0.16846 0.1586 0.30713 0.10715 0.30815-0.0514 1e-3 -0.0389 0.0419 0.0278 0.0908s0.28169 0.33394 0.47766 0.63344c0.79046 1.208 0.94486 1.3066 1.575 1.0061zm2.8418-1.1272h0.24802l0.0143-0.21176c8e-3 -0.11647 2e-3 -0.26622-0.0141-0.33277-0.0156-0.0666-0.1193-0.50218-0.23041-0.96806l-0.20201-0.84705-0.35871 0.0205c-1.6469 0.0938-1.8496 0.31574-1.2523 1.3711 0.0565 0.0998 0.21177 0.40812 0.34504 0.68509 0.28542 0.59321 0.43532 0.66991 0.87527 0.44787 0.17972-0.0907 0.43838-0.16491 0.57479-0.16491zm3.1801-1.5635c0.0288-0.50443 4e-3 -0.98078-0.055-1.0586l-0.10728-0.14142-0.93115 0.0658c-0.51214 0.0362-0.98233 0.11292-1.0449 0.17046-0.15447 0.14208-0.19672 0.4945-0.0776 0.64747 0.0536 0.0688 0.13259 0.39444 0.17557 0.7236 0.0979 0.74973 0.12911 0.76671 1.149 0.62575l0.83905-0.11597zm-7.3662-1.313 0.46665-0.1853-0.0878-0.43549c-0.0483-0.23952-0.12216-0.73498-0.16413-1.101l-0.0763-0.66554-1.0173-0.0355c-0.55952-0.0195-1.0656 0.0129-1.1246 0.0719l-0.10734 0.10735 0.12843 0.83566c0.0706 0.45961 0.17701 0.94457 0.23638 1.0777 0.0594 0.13311 0.14022 0.34208 0.17968 0.46437l0.0717 0.22235 0.51401-0.0856c0.28271-0.0471 0.724-0.16898 0.98065-0.2709zm2.4279-0.49611c0.0358-0.058 0.33971-0.13175 0.67533-0.164 0.76706-0.0737 0.73247-0.0218 0.63053-0.94616l-0.0861-0.78108h-2.2991l0.0236 0.30251c0.013 0.16639 0.0902 0.61563 0.17149 0.99831l0.14788 0.69579h0.33564c0.18461 0 0.36495-0.0474 0.40077-0.10537zm4.8166-0.6352 0.23364-0.12504-0.0699-0.18213c-0.0384-0.10017-0.0699-0.37016-0.0699-0.59998v-0.41786l-2.4806 0.069 0.0202 0.58245c0.0111 0.32035 0.0511 0.66292 0.0889 0.76127l0.0686 0.17882 0.98771-0.0707c0.54323-0.0389 1.0928-0.127 1.2213-0.19577zm-7.119-2.597c0.0404-0.10528 0.0735-0.36393 0.0735-0.57478 6e-5 -0.21086 0.0837-0.78388 0.18578-1.2734l0.18567-0.89002-0.12682-0.15281c-0.0697-0.0841-0.51902-0.24814-0.99838-0.36464l-0.87156-0.21184-0.1857 0.27785c-1.0016 1.4986-0.62933 3.381 0.66857 3.381h0.99544zm3.5974-1.0187c0.0872-1.3319 0.13028-1.2224-0.52786-1.341-0.28349-0.0511-0.72306-0.14647-0.97683-0.21198l-0.46139-0.11911-0.0979 0.26124c-0.36127 0.96391-0.51336 2.317-0.28599 2.5444 0.0467 0.0467 0.57761 0.0694 1.1798 0.0504l1.0949-0.0345zm3.6365 0.23126 0.0395-0.97881-0.12101-0.095c-0.0666-0.0522-0.57402-0.15981-1.1277-0.2391l-1.0067-0.14417-0.17311 0.14367-0.17311 0.14368v1.8581l0.1452 0.14521 0.14521 0.14521h2.2323zm-0.0452-2.3126 0.14521-0.14521v-1.9924l-0.21176-0.0529c-0.25109-0.0627-0.77795-0.11405-1.354-0.13199l-0.41623-0.013-0.15109 0.78654c-0.0831 0.4326-0.15445 0.93629-0.15855 1.1193l-7e-3 0.33277 0.75629 2e-3c0.41596 1e-3 0.83798 0.0546 0.93781 0.11915 0.23591 0.15247 0.28578 0.14984 0.45982-0.0242zm-3.05-1.4884c0.31065-1.2748 0.33626-1.1883-0.42565-1.4376-0.84547-0.27654-0.81626-0.29334-1.29 0.74176-0.23606 0.5158-0.479 1.0306-0.53986 1.144l-0.11066 0.20615 0.14877 0.0964c0.27603 0.17878 1.114 0.37297 1.5344 0.35561l0.41758-0.0173zm-3.1663-0.18151c0.12943-0.36605 0.26602-0.69276 0.30351-0.72604 0.0375-0.0333 0.18685-0.29319 0.33191-0.57758l0.26374-0.51707-0.294-0.17872c-0.16169-0.0983-0.42787-0.26017-0.5915-0.35973l-0.29751-0.18102-0.27727 0.27918c-0.1525 0.15355-0.43554 0.52089-0.62897 0.81631-0.19344 0.29541-0.44443 0.67431-0.55778 0.84198-0.11333 0.16767-0.24243 0.41944-0.28688 0.55948l-0.0808 0.25462 0.69908 0.24238c0.3845 0.13331 0.80755 0.23549 0.94011 0.22706l0.24102-0.0153zm6.3415-1.861c0.0238-0.12352 9e-3 -0.45548-0.0337-0.73769l-0.0769-0.5131-0.29625-0.13498c-0.4238-0.19309-0.56876-0.0952-0.88724 0.59899l-0.28239 0.61556 0.10457 0.10457c0.33568 0.33568 1.4108 0.38436 1.472 0.0667zm-2.4288-0.46843c0.0671-0.0832 0.24543-0.44091 0.39634-0.79493l0.27439-0.64367-0.23756-0.23757-0.23757-0.23756-1.5232 1.5863 0.14241 0.17158c0.23536 0.28359 1.001 0.38428 1.1852 0.15587zm-1.5067-1.6775c1.1951-1.3602 1.1046-1.5424-0.30106-0.60614-0.84749 0.56448-1.5293 1.1732-1.4211 1.2689 0.18613 0.16461 0.78898 0.40731 0.84485 0.34012 0.0374-0.0449 0.43214-0.49622 0.87731-1.0029zm3.9556-0.53085c0-0.0998-0.0512-0.18151-0.11387-0.18151-0.15258 0-0.26187 0.18896-0.16519 0.28564 0.13628 0.13627 0.27906 0.083 0.27906-0.10413zm-1.1274-0.56722-0.0635-0.15882-0.01 0.23193c-5e-3 0.12756 0.0234 0.19903 0.0636 0.15882 0.0402-0.0402 0.0445-0.14458 0.01-0.23193zm29.902 21.259c-4.3034-0.72401-7.6543-3.4729-8.7094-7.1447l-0.27659-0.9626 0.0084-1.7546 0.0084-1.7546 0.32378-1.0658c1.1415-3.7573 4.0078-6.3482 7.9443-7.1808l1.0286-0.21755 3.6302 0.02 0.96103 0.26034c0.52857 0.14319 1.3726 0.46181 1.8756 0.70805l0.91457 0.44771 2.3076 2.3093 0.44313 0.85251c0.24372 0.46887 0.56678 1.2857 0.71791 1.8151l0.27478 0.9626 0.0039 1.734 0.0039 1.734-0.21554 0.15769c-0.54291 0.39719-5.1634 0.65642-11.863 0.66558l-3.2451 4e-3 0.08235 0.27227c0.66424 2.196 3.0902 3.6724 6.4124 3.9024l1.2055 0.0834 1.2523-0.13982c1.4696-0.1641 3.0019-0.58346 4.0323-1.1036l0.7355-0.37128-0.07305 0.76566c-0.04018 0.42111-0.1038 1.283-0.14138 1.9152-0.03758 0.63226-0.09435 1.3196-0.12616 1.5275l-0.05783 0.37791-0.69319 0.30878c-0.8693 0.38722-1.8674 0.64491-3.3823 0.87326l-1.1831 0.17833-1.6336-0.0117c-0.89848-6e-3 -2.0532-0.0823-2.566-0.16856zm6.1318-12.177c0.29149-0.2919-0.74491-2.2582-1.5757-2.9895l-0.57346-0.50478-1.5631-0.4828h-0.86938c-2.4133 0-4.2692 1.2606-5.1516 3.4993l-0.24545 0.62271 4.9511-0.0341c2.7231-0.0188 4.9855-0.0686 5.0276-0.11078zm53.283 12.177c-4.3034-0.72401-7.6543-3.4729-8.7094-7.1447l-0.27659-0.9626 0.0084-1.7546 0.0084-1.7546 0.32378-1.0658c1.1415-3.7573 4.0078-6.3482 7.9443-7.1808l1.0286-0.21755 3.6302 0.02 0.96103 0.26034c0.52857 0.14319 1.3726 0.46181 1.8756 0.70805l0.91457 0.44771 2.3076 2.3093 0.44313 0.85251c0.24372 0.46887 0.56678 1.2857 0.71791 1.8151l0.27478 0.9626 0.00391 1.734 0.00391 1.734-0.21555 0.15769c-0.54291 0.39719-5.1634 0.65642-11.863 0.66558l-3.2451 4e-3 0.08235 0.27227c0.66425 2.196 3.0902 3.6724 6.4124 3.9024l1.2055 0.0834 1.2523-0.13982c1.4696-0.1641 3.0019-0.58346 4.0323-1.1036l0.73551-0.37128-0.073051 0.76566c-0.040177 0.42111-0.1038 1.283-0.14138 1.9152-0.03758 0.63226-0.094356 1.3196-0.12616 1.5275l-0.057832 0.37791-0.69319 0.30878c-0.8693 0.38722-1.8674 0.64491-3.3823 0.87326l-1.1831 0.17833-1.6336-0.0117c-0.89848-6e-3 -2.0532-0.0823-2.566-0.16856zm6.1318-12.177c0.29149-0.2919-0.74491-2.2582-1.5757-2.9895l-0.57346-0.50478-1.5631-0.4828h-0.86938c-2.4133 0-4.2692 1.2606-5.1516 3.4993l-0.24544 0.62271 4.9511-0.0341c2.7231-0.0188 4.9855-0.0686 5.0276-0.11078zm25.701 12.147-2.2553-0.0357-0.06069-5.957-0.0607-5.957-0.19435-0.7601c-0.35993-1.4076-0.91672-2.2384-1.829-2.7291l-0.48403-0.26032-1.0953-6.8e-4 -1.0953-6.9e-4 -0.91878 0.45409-0.91878 0.45408-0.68221 0.73687-0.68221 0.73686 0.034164 6.6443 0.034164 6.6443-4.9008-9e-5v-19.724h4.8402v0.78655c0 0.90742-0.019243 0.89427 0.64374 0.4398 0.76358-0.52342 1.6227-0.9299 2.6265-1.2427l0.90451-0.28184 2.9042 4e-3 0.72604 0.21857c2.3843 0.7178 4.072 2.5306 4.7448 5.0968l0.19065 0.72709 0.1468 13.19 0.53637 0.90755-0.4497-0.0274c-0.24733-0.0151-1.4646-0.0435-2.705-0.0631zm-69.605-0.1219c-0.13438-0.21743-8.3073-19.43-8.3073-19.528v-0.10911l5.5894 0.065 2.397 6.3917c1.3184 3.5154 2.4165 6.4112 2.4404 6.435 0.02384 0.0238 1.1002-2.866 2.3918-6.4219l2.3485-6.4653h5.5192l-0.10471 0.27227c-0.10568 0.27478-7.4461 17.81-7.9019 18.877l-0.24564 0.57478h-2.0351c-1.1193 0-2.0605-0.0411-2.0916-0.0914zm15.531-9.7706v-9.8621h4.8403v1.4745l0.61203-0.55026c0.33662-0.30265 0.92199-0.70147 1.3008-0.88627l0.6888-0.33601 1.2706-4e-5c2.7463-1e-4 2.7075-0.0456 2.4827 2.9204-0.10002 1.3197-0.18225 2.4466-0.18273 2.5043-3.43e-4 0.0577-0.2156-0.0892-0.47804-0.32626-0.55471-0.50115-1.1836-0.69944-2.296-0.72391l-0.7965-0.0175-1.3964 0.64916-1.2146 1.247 0.03494 6.8846 0.03494 6.8846-4.9008-9e-5zm-63.437-0.84011c-0.0174-5.7531-7.2e-4 -10.586 0.037-10.739l0.0686-0.2792 0.47596 0.0325c0.66018 0.0451 1.6383 0.26889 1.928 0.44119 0.13311 0.0791 0.47344 0.21787 0.75629 0.30826 0.28286 0.0904 0.51428 0.19915 0.51428 0.24168 0 0.0425 0.18279 0.14342 0.40619 0.22421 0.2234 0.0808 0.49962 0.25012 0.61383 0.37632l0.20765 0.22945-0.19342 0.37403c-0.25856 0.49999-0.74453 0.38969-2.6227-0.59525-0.10828-0.0568-0.39416-0.14025-0.63529-0.18549l-0.43842-0.0822v7.7714h0.36302v-7.1251l0.12631-0.0781c0.0695-0.0429 0.19332-0.0224 0.27523 0.0455 0.0819 0.068 0.41349 0.21342 0.73684 0.3232s0.64873 0.24808 0.72307 0.30734c0.0743 0.0592 0.29853 0.24204 0.49819 0.40619l0.36302 0.29846-0.19019 0.33984-0.19019 0.33983-0.2874-0.033c-0.15806-0.0182-0.37197-0.10918-0.47535-0.20223-0.10337-0.0931-0.26317-0.1871-0.35511-0.20897l-0.16716-0.0398-0.0576 5.4164 0.50721 0.50721-0.0361 0.30537c-0.0199 0.16796-0.11388 0.36584-0.2089 0.43973-0.22448 0.17455-0.22045 0.39948 9e-3 0.48743l0.18151 0.0696v0.70775l-0.18151 0.0696c-0.0998 0.0383-0.18152 0.13968-0.18152 0.22527 0 0.0856 0.0817 0.18696 0.18152 0.22527l0.18151 0.0696v0.76746l-0.20876 0.15265-0.20875 0.15264-0.0144 2.3761c-0.0159 2.6155-0.0107 2.6331 0.63936 2.1914 0.69593-0.47289 1.2446-0.36423 1.2446 0.24648v0.2644l-0.33277 0.22207c-0.54803 0.36572-2.1832 1.1368-2.4106 1.1368h-0.15681l-0.0644-6.4538-0.30251-0.1008v7.1596h0.19347c0.10641 0 0.36507-0.0753 0.57478-0.16732 0.20972-0.092 0.5719-0.23843 0.80484-0.32534 0.23294-0.0869 0.62664-0.28387 0.87489-0.43771 0.24826-0.15383 0.50024-0.2797 0.55997-0.2797 0.05973 0 0.17638-0.0817 0.25924-0.18151 0.30635-0.36913 0.95894 0.0418 0.96081 0.60504l7.89e-4 0.24201-0.63137 0.39328c-0.34725 0.2163-0.69975 0.39327-0.78332 0.39327-0.08358 0-0.15195 0.0458-0.15195 0.10185 0 0.056-0.23143 0.17055-0.51428 0.25451-0.28286 0.084-0.56921 0.19725-0.63635 0.25175-0.17924 0.14553-1.7019 0.48095-2.1832 0.48095h-0.41469zm1.481 0.72625c0-0.12772-0.23223-0.18138-0.3013-0.0696-0.0418 0.0676 9e-3 0.12298 0.11265 0.12298 0.10376 0 0.18865-0.024 0.18865-0.0534zm-0.0683-1.265c0.0368-0.0596-0.0144-0.13955-0.11386-0.17771l-0.18082-0.0694v0.17772c0 0.19571 0.18909 0.24023 0.29468 0.0694zm5.2716 9.6948c-0.69882-0.71851-1.3522-1.4677-1.4519-1.665-0.09972-0.19723-0.21339-0.38582-0.25258-0.4191-0.06287-0.0534-0.5479-1.0605-1.0198-2.1176-0.17064-0.38223-0.48021-1.5239-0.68902-2.5412l-0.1242-0.60503 0.0634-2.1522c0.0349-1.1837 0.11686-2.2183 0.18218-2.2991 0.0653-0.0808 0.15728-0.48606 0.20433-0.90051l0.0855-0.75355-0.25357-0.4103c-0.30877-0.49959-0.31177-0.66535-0.0184-1.017 0.28125-0.33713 0.49086-0.35004 0.49086-0.0302v0.24201h0.36302v-0.23632c0-0.12997-0.05902-0.36584-0.13115-0.52415l-0.13114-0.28783 0.19987-0.47416 0.19987-0.47415 0.22294 0.27226c0.42198 0.51534 0.72412-0.0768 0.34717-0.68042l-0.13949-0.22335 0.23024-0.31573c0.27755-0.3806 0.6276-0.41516 0.75366-0.0744l0.09209 0.24894 0.22644-0.25022 0.22644-0.25021-0.27318-0.8901 0.14785-0.30849c0.08132-0.16967 0.24257-0.32672 0.35834-0.34902l0.21049-0.0405 0.11836 0.31133c0.14689 0.38634 0.20769 0.3873 0.55848 9e-3l0.28036-0.30252h0.30115c0.54425 0 0.49552 0.50169-0.0956 0.98431l-0.2545 0.20778 0.21176 0.0824c0.28866 0.11238 0.26581 0.32661-0.0683 0.64049-0.3128 0.29386-0.56924 0.33346-0.78194 0.12076l-0.14235-0.14235-0.24487 0.22161c-0.31427 0.28441-0.31382 0.54712 9.26e-4 0.54712 0.33989 0 0.43215 0.32388 0.17363 0.60954l-0.21494 0.23751h-0.90091l-0.15064 0.18151c-0.1575 0.18977-0.12966 0.20745 0.36039 0.22889l0.29989 0.0131 0.04383 0.22255c0.02411 0.12241-0.07949 0.35384-0.23023 0.51429l-0.27406 0.29172h-0.92587v0.48402h0.35294c0.42357 0 0.50667 0.17967 0.28687 0.62027l-0.16354 0.32783-0.96105 0.1624-0.05467 0.26156c-0.18393 0.88-0.29974 1.3836-0.37322 1.6229l-0.0836 0.27226h0.12798c0.07039 0 0.16163-0.0545 0.20276-0.121l0.07479-0.12101h5.8667l0.14521 0.14521c0.07986 0.0799 0.14521 0.25956 0.14521 0.39932s-0.06534 0.31946-0.14521 0.39932l-0.14521 0.14521h-5.8885l-0.06965-0.18151c-0.14312-0.37297-0.28577-0.16156-0.28577 0.42353 0 0.60732 0.15878 0.81536 0.27707 0.36302l0.06329-0.24202h2.9056c1.5981 0 2.9917 0.0331 3.097 0.0735l0.19141 0.0735v0.34294c0 0.50907-0.04248 0.51597-3.1712 0.51514l-2.8914-6.9e-4 -0.13909-0.13908c-0.2439-0.2439-0.33269-0.15183-0.33269 0.34494 0 0.26622 0.05445 0.48403 0.121 0.48403 0.06655 0 0.12101-0.0817 0.12101-0.18151 0-0.23511-0.32462-0.20713 2.9042-0.2503l2.8437-0.038 0.54453 0.3544v0.69457l-0.19141 0.0734c-0.10527 0.0404-1.4955 0.0735-3.0895 0.0735h-2.8981l-0.06965-0.18151c-0.03831-0.0998-0.11828-0.18151-0.17771-0.18151-0.13906 0-0.14173 0.69095-3e-3 0.77669 0.05778 0.0357 0.14162 0.34055 0.18631 0.67742 0.04469 0.33687 0.14418 0.7601 0.2211 0.94052 0.07692 0.18041 0.1507 0.38248 0.16395 0.44904 0.23405 1.1755 2.692 4.7606 3.2797 4.7836 0.05367 2e-3 0.25272 0.14026 0.44233 0.30702l0.34476 0.3032-0.1496 0.59602-0.53992 2e-3zm0.61813-1.0663-0.24648-0.31336 0.20609-0.32193c0.11335-0.17707 0.43322-0.6039 0.71082-0.94853 0.2776-0.34463 0.54054-0.73942 0.5843-0.8773 0.04376-0.13789 0.13035-0.25071 0.19242-0.25071 0.06207 0 0.11285-0.0696 0.11285-0.15458 0-0.085 0.08049-0.26951 0.17887-0.40997l0.17887-0.25537 0.85232 0.38632-0.0027 0.30756c-0.0015 0.16915-0.10918 0.44369-0.23932 0.61007-0.13015 0.16639-0.23815 0.35697-0.24 0.42353-0.0027 0.0978-0.86192 1.2568-1.4577 1.9664-0.20546 0.24471-0.56572 0.17439-0.8304-0.16209zm-1.0811-1.1768c-0.34012-0.36203-0.33617-0.39053 0.13541-0.97804 0.51892-0.64649 1.1746-1.6894 1.1746-1.8684 0-0.2025 0.50484-0.17313 0.82012 0.0477 0.3667 0.25685 0.33934 0.49415-0.14618 1.2678-1.1098 1.7684-1.4873 2.0596-1.9839 1.531zm-0.86388-1.4061c-0.18534-0.34631-0.15256-0.70619 0.0865-0.94977 0.11647-0.11868 0.32332-0.43178 0.45968-0.69579l0.24792-0.48002h0.83524l0.0762 0.79146-1.1514 1.5682h-0.21442c-0.11793 0-0.27079-0.10533-0.33968-0.23406zm1.2598-8.693c-0.67147-0.46325-0.75539-2.201-0.10647-2.2048 0.13724-6.9e-4 1.0206 1.4162 1.0206 1.6372 0 0.35726-0.64155 0.75567-0.91409 0.56765zm1.2058-0.93505c-0.04176-0.16638-0.12448-0.30251-0.18382-0.30251-0.05934 0-0.10789-0.0735-0.10789-0.1633s-0.16237-0.40293-0.36082-0.69579c-0.42754-0.63096-0.45289-0.93294-0.11443-1.3632 0.43992-0.55927 0.44325-0.55605 1.5202 1.4728l0.40504 0.76306-0.31913 0.29575c-0.17552 0.16267-0.41905 0.29576-0.54117 0.29576h-0.22204zm1.5118-0.69963c-0.10623-0.0811-0.26691-0.35161-0.35708-0.60119-0.09017-0.24958-0.20745-0.45378-0.26064-0.45378-0.05318 0-0.085-0.0408-0.07071-0.0908 0.03236-0.11301-0.57579-1.0709-0.74712-1.1768-0.21112-0.13048-0.14049-0.46812 0.17783-0.85008l0.30254-0.36302 0.49899 0.54453c0.27444 0.2995 0.60324 0.76235 0.73066 1.0286 0.39234 0.8197 0.61735 1.2083 0.72401 1.2504 0.19969 0.0788 0.09763 0.36922-0.21662 0.61642-0.36369 0.28607-0.50909 0.30387-0.78186 0.0957z" fill="#2d70e1" stroke-width=".34301"/></g></svg>
