<svg width="190" height="181" viewBox="0 0 190 181" fill="none" xmlns="http://www.w3.org/2000/svg">
<path d="M95 0V0.325195L72.6543 69.0983H0L32.5291 92.7321L38.9726 85.0529L30.7768 79.0983H79.9197L95 32.6859V32.3607L110.08 78.7731H159.223L151.027 84.7277L157.471 92.4069L190 68.7731H117.346L95 0Z" fill="#243D8F"/>
<path d="M95 125.588V125.913L55.3483 154.721L58.8516 143.939L51.272 134.906L36.3271 180.902L95 138.273V137.948L153.673 180.577L138.728 134.581L131.148 143.614L134.652 154.396L95 125.588Z" fill="#243D8F"/>
<path d="M35.1924 91.668H49.5898C52.8392 91.668 55.4072 92.4915 57.2939 94.1387C59.1956 95.7858 60.1465 98.1891 60.1465 101.349C60.1465 102.906 59.8171 104.284 59.1582 105.481C58.5143 106.679 57.571 107.615 56.3281 108.289C57.7656 108.888 58.9336 109.891 59.832 111.299C60.7305 112.706 61.1797 114.331 61.1797 116.173C61.1797 119.392 60.2438 121.668 58.3721 123.001C56.5153 124.334 53.8424 125 50.3535 125H35.1924V91.668ZM43.0312 98.3838V105.414H48.5791C49.6872 105.414 50.5706 105.122 51.2295 104.538C51.9033 103.954 52.2402 103.063 52.2402 101.865C52.2402 100.682 51.9108 99.8063 51.252 99.2373C50.5931 98.6683 49.7021 98.3838 48.5791 98.3838H43.0312ZM43.0312 111.299V118.352H49.7246C50.8327 118.352 51.7236 118.06 52.3975 117.476C53.0713 116.892 53.4082 116.001 53.4082 114.803C53.4082 113.62 53.0713 112.744 52.3975 112.175C51.7386 111.591 50.8477 111.299 49.7246 111.299H43.0312Z" fill="#0080FF"/>
<path d="M66.0537 92.2969C66.0537 91.2188 66.4505 90.3128 67.2441 89.5791C68.0378 88.8304 68.9736 88.4561 70.0518 88.4561C71.1449 88.4561 72.0807 88.8304 72.8594 89.5791C73.653 90.3128 74.0498 91.2188 74.0498 92.2969C74.0498 93.375 73.653 94.3034 72.8594 95.082C72.0807 95.8607 71.1449 96.25 70.0518 96.25C68.9736 96.25 68.0378 95.8607 67.2441 95.082C66.4505 94.3034 66.0537 93.375 66.0537 92.2969ZM66.1211 99.9111H73.9824V125H66.1211V99.9111Z" fill="#0080FF"/>
<path d="M77.8008 98.4062V91.668H102.8V97.0586L86.8076 118.352H102.8V125H77.8008V119.632L93.8379 98.4062H77.8008Z" fill="#0080FF"/>
<path d="M106.124 102.764C105.929 100.533 106.266 98.571 107.135 96.8789C108.018 95.1868 109.313 93.8617 111.021 92.9033C112.728 91.93 114.727 91.4434 117.018 91.4434C119.368 91.4434 121.375 91.8626 123.037 92.7012C124.714 93.5397 125.994 94.7002 126.878 96.1826C127.776 97.6501 128.226 99.3421 128.226 101.259C128.226 103.295 127.829 105.032 127.035 106.47C126.257 107.907 125.253 109.135 124.025 110.153C122.798 111.172 121.517 112.085 120.185 112.894C119.226 113.463 118.35 114.039 117.557 114.623C116.763 115.192 116.104 115.784 115.58 116.397C115.056 117.011 114.727 117.655 114.592 118.329H128.271V125H106.012C105.907 124.416 105.832 123.862 105.787 123.338C105.742 122.799 105.72 122.29 105.72 121.811C105.72 120.059 105.989 118.539 106.528 117.251C107.067 115.948 107.794 114.803 108.707 113.814C109.62 112.826 110.661 111.928 111.829 111.119C112.997 110.296 114.21 109.494 115.468 108.716C116.591 108.012 117.594 107.331 118.478 106.672C119.361 106.013 120.057 105.332 120.566 104.628C121.09 103.909 121.353 103.123 121.353 102.27C121.353 101.087 120.993 100.068 120.274 99.2148C119.571 98.3464 118.53 97.9121 117.152 97.9121C116.254 97.9121 115.468 98.0918 114.794 98.4512C114.135 98.8105 113.633 99.3496 113.289 100.068C112.96 100.787 112.832 101.686 112.907 102.764H106.124Z" fill="#0080FF"/>
<path d="M144.734 111.546V102.045L137.951 111.546H144.734ZM144.734 117.7H131.415V111.703L145.453 91.668H152.551V111.546H157.178V117.7H152.551V125H144.734V117.7Z" fill="#0080FF"/>
</svg>
