<svg width="832" height="832" viewBox="0 0 832 832" fill="none" xmlns="http://www.w3.org/2000/svg">
<path d="M477.369 504.038C486.273 507.027 483.339 522.749 469.789 527.557C449.295 534.821 449.108 515.392 463.255 506.907H446.192V499.81C441.501 501.585 436.334 502.477 432.437 503.204C421.376 505.23 404.597 486.348 393.811 488.272C333.452 498.575 371.361 583.644 401.637 611.768C447.901 654.751 353.624 724.282 354.327 591.452C354.468 559.273 353.624 541.361 326.112 536.981C318.734 535.831 314.998 541.092 312.542 548.019C308.467 559.487 307.928 575.534 300.032 574.219C282.48 571.154 320.763 519.748 293.895 512.64C267.188 505.555 251.77 541.83 238.885 559.686C228.653 573.701 188.308 600.605 167.685 584.736C123.37 550.712 165.694 535.134 191.016 521.095C199.024 516.66 205.488 511.849 210.556 506.901H185.922L152.174 457.308C149.913 458.002 148.028 458.678 146.148 459.369V506.901H115.533V467.321L115.114 467.397C70.7377 475.454 59.7498 421.478 115.533 431.687V374.733H149.542C160.342 374.733 168.742 375.415 174.755 376.797C180.734 378.217 186.115 380.603 190.838 384.032C195.56 387.422 199.328 391.749 202.092 396.969C204.853 402.196 206.238 407.741 206.238 413.555C206.238 421.899 204.136 429.154 199.955 435.347C198.754 437.115 197.396 438.784 195.885 440.347C206.943 436.237 213.774 426.039 216.362 405.478C219.266 396.809 212.43 382.181 202.001 374.839C184.645 362.597 147.852 360.156 155.174 345.01C171.169 324.156 195.63 353.753 216.216 363.534C234.397 372.148 253.533 371.609 257.067 355.363C264.963 319.615 187.804 275.031 200.818 251.38C212.108 230.74 258.61 336.18 301.112 315.829C311.251 311.072 328.715 285.659 329.86 262.649C331.798 225.139 392.376 248.002 355.688 282.658C334.978 302.224 351.508 342.39 387.797 339.445C418.182 337.023 415.295 308.794 435.716 289.409C479.439 247.931 527.721 293.824 461.006 326.934C425.721 344.249 386.345 386.702 446.192 382.167V374.742H477.369V432.264L521.034 374.742H558.618L508.723 437.651L562.529 506.907H524.41L477.369 446.015V504.038ZM514.198 553.933C523.57 551.078 525.329 561.797 516.66 564.865C504.832 569.046 504.115 557.004 514.198 553.933ZM275.307 649.756C245.458 651.39 280.726 586.563 296.126 583.24C303.77 581.589 299.733 648.465 275.307 649.756ZM446.192 426.888V402.837C433.585 404.245 442.506 419.112 446.192 426.888ZM385.253 196.397C376.101 195.879 364.735 186.387 368.831 181.415C409.984 131.266 415.225 198.159 385.253 196.397ZM151.354 398.788H146.148V435.432H152.809C160.775 435.432 166.839 433.818 171.043 430.604C175.238 427.374 177.326 422.781 177.326 416.729C177.326 410.417 175.315 405.852 171.219 403.004C167.146 400.184 160.526 398.788 151.354 398.788ZM182.473 451.303L216.86 499.766C236.607 473.34 219.269 446.042 183.498 451.154L182.473 451.303ZM382.589 223.127C347.968 271.263 331.004 190.339 372.845 200.513C385.426 203.886 390.292 212.429 382.589 223.127ZM492.398 529.764C504.978 525.905 508.175 544.933 496.508 549.058C480.625 554.694 478.83 533.878 492.398 529.764ZM101.576 307.45C111.126 300.148 156.788 329.508 154.431 336.977C148.616 355.48 83.8453 321.073 101.576 307.45Z" fill="url(#paint0_linear_18_2)"/>
<path d="M446.192 506.907V374.743H477.369V432.263L521.036 374.743H558.617L508.724 437.65L562.53 506.907H524.409L477.369 446.014V506.907H446.192Z" stroke="black" stroke-width="0.288"/>
<path d="M151.353 398.786H146.148V435.432H152.808C160.775 435.432 166.839 433.819 171.042 430.604C175.239 427.373 177.325 422.779 177.325 416.73C177.325 410.417 175.315 405.853 171.22 403.004C167.145 400.185 160.526 398.786 151.353 398.786ZM115.531 506.902V374.732H149.542C160.342 374.732 168.742 375.414 174.756 376.798C180.733 378.217 186.116 380.603 190.837 384.032C195.559 387.421 199.328 391.75 202.091 396.97C204.854 402.195 206.237 407.741 206.237 413.556C206.237 421.899 204.136 429.154 199.954 435.346C195.757 441.537 189.652 446.472 181.629 450.115L221.922 506.902H185.923L150.635 455.05H146.148V506.902H115.531Z" stroke="black" stroke-width="0.288"/>
<path fill-rule="evenodd" clip-rule="evenodd" d="M686.997 477.323C687.536 477.537 688.096 477.72 688.615 477.913C694.267 479.892 699.848 480.895 705.322 480.895C710.796 480.895 715.177 479.709 718.479 477.359C721.801 475.029 723.449 472.012 723.449 468.333C723.449 463.108 717.583 457.166 705.79 450.512L701.395 448.014L692.471 443.099C683.914 438.357 677.504 432.939 673.235 426.854C668.982 420.754 666.86 413.876 666.86 406.214C666.86 395.947 670.885 387.456 678.943 380.731C686.982 374.015 697.32 370.678 709.972 370.678C714.531 370.678 719.628 371.217 725.301 372.311C730.953 373.405 736.982 375.094 743.443 377.281V407.542C736.982 403.65 730.918 400.633 725.301 398.461C719.628 396.324 714.78 395.286 710.69 395.286C706.258 395.286 702.758 396.182 700.209 398.049C697.681 399.86 696.389 402.409 696.389 405.711C696.389 407.903 697.121 409.984 698.612 411.958C700.118 413.968 702.382 415.764 705.505 417.376L721.012 425.74C733.95 432.705 742.675 439.146 747.142 445.109C751.594 451.081 753.837 458.153 753.837 466.268C753.837 478.793 749.421 488.938 740.589 496.727C731.798 504.516 720.168 508.393 705.699 508.393C704.498 508.393 703.242 508.372 701.985 508.322L686.997 477.323Z" fill="#9B9D9B"/>
<path fill-rule="evenodd" clip-rule="evenodd" d="M225 506.907V374.743H306.412V401.986H255.602V425.837H299.106V452.923H255.602V479.088H307.149V506.907H225Z" fill="white"/>
<path d="M225 506.907V374.743H306.412V401.986H255.602V425.837H299.106V452.923H255.602V479.088H307.149V506.907H225Z" stroke="#F6D449" stroke-width="0.288"/>
<path fill-rule="evenodd" clip-rule="evenodd" d="M331.198 506.907V370.433H334.215L416.522 447.571V374.743H445.597V511.918H442.87L360.294 434.811V506.907H331.198Z" fill="white"/>
<path d="M331.198 506.907V370.433H334.215L416.522 447.571V374.743H445.597V511.918H442.87L360.294 434.811V506.907H331.198Z" stroke="#F6D449" stroke-width="0.288"/>
<path fill-rule="evenodd" clip-rule="evenodd" d="M607.056 464.894H641.804L624.628 423.492L607.056 464.894ZM557.646 506.912L625.025 370.617H627.035L692.939 506.912H659.931L651.552 487.691H597.939L589.397 506.912H557.646Z" fill="#9B9D9B"/>
<path fill-rule="evenodd" clip-rule="evenodd" d="M586.568 525.314C585.169 523.823 583.5 522.694 581.542 521.921C579.588 521.147 577.487 520.756 575.228 520.756C573.02 520.756 570.97 521.132 569.108 521.849C567.256 522.602 565.587 523.696 564.117 525.202C562.534 526.856 561.334 528.723 560.509 530.824C559.701 532.92 559.268 535.184 559.268 537.641C559.268 540.119 559.701 542.383 560.509 544.464C561.298 546.565 562.519 548.427 564.117 550.08C565.572 551.535 567.24 552.609 569.087 553.367C570.97 554.12 573.02 554.496 575.228 554.496C579.588 554.496 583.175 553.24 586.029 550.706C588.883 548.178 590.658 544.677 591.34 540.21H576.337V535.24H597.069V536.42C597.069 538.883 596.814 541.177 596.351 543.293C595.883 545.415 595.166 547.297 594.194 548.895C592.241 552.339 589.656 554.964 586.461 556.791C584.864 557.691 583.159 558.353 581.328 558.8C579.496 559.253 577.522 559.467 575.406 559.467C572.338 559.467 569.52 558.983 566.935 557.997C564.366 557.045 562.107 555.59 560.169 553.687C558.047 551.642 556.45 549.236 555.356 546.488C554.226 543.746 553.672 540.785 553.672 537.641C553.672 534.446 554.226 531.506 555.32 528.758C556.399 526.031 558.032 523.645 560.169 521.58C562.107 519.692 564.351 518.242 566.899 517.291C569.448 516.304 572.282 515.815 575.406 515.815C578.382 515.815 581.15 516.284 583.734 517.255C586.298 518.207 588.527 519.621 590.465 521.473L586.568 525.314ZM609.65 538.18H613.613C617.007 538.18 619.612 537.443 621.387 535.957C623.183 534.482 624.079 532.35 624.079 529.547C624.079 526.983 623.163 524.988 621.331 523.625C620.416 522.943 619.286 522.44 617.979 522.099C616.686 521.758 615.125 521.58 613.329 521.58H609.65V538.18ZM604.191 558.622V516.624H613.797C618.859 516.624 622.771 517.739 625.534 519.962C628.281 522.205 629.644 525.35 629.644 529.384C629.644 533.118 628.474 536.186 626.124 538.649C623.773 541.091 620.741 542.306 617.007 542.306H616.686L631.491 558.622H624.618L609.65 541.538V558.622H604.191ZM657.321 554.496C659.671 554.496 661.767 554.12 663.655 553.382C665.522 552.629 667.206 551.515 668.697 550.009C670.187 548.503 671.388 546.651 672.253 544.499C672.665 543.492 672.95 542.398 673.168 541.248C673.382 540.063 673.489 538.883 673.489 537.641C673.489 535.184 673.097 532.92 672.268 530.839C671.459 528.738 670.223 526.876 668.61 525.202C667.155 523.732 665.486 522.638 663.583 521.885C661.696 521.132 659.6 520.756 657.321 520.756C655.113 520.756 653.027 521.132 651.129 521.885C649.206 522.638 647.537 523.732 646.103 525.202C644.556 526.749 643.376 528.596 642.531 530.753C641.687 532.884 641.275 535.184 641.275 537.641C641.275 540.119 641.687 542.418 642.511 544.535C643.335 546.636 644.541 548.503 646.103 550.08C647.537 551.5 649.191 552.609 651.109 553.346C652.991 554.099 655.057 554.496 657.321 554.496ZM657.372 559.467C654.339 559.467 651.541 558.983 649.008 558.012C646.443 557.06 644.179 555.59 642.17 553.631C640.033 551.586 638.456 549.185 637.327 546.453C636.228 543.711 635.658 540.765 635.658 537.641C635.658 534.446 636.228 531.506 637.342 528.779C638.471 526.067 640.069 523.661 642.226 521.58C644.164 519.713 646.387 518.278 648.957 517.291C651.485 516.304 654.304 515.815 657.372 515.815C660.424 515.815 663.222 516.304 665.792 517.291C668.356 518.242 670.599 519.692 672.558 521.58C674.69 523.645 676.308 526.047 677.422 528.814C677.976 530.142 678.388 531.541 678.678 533.032C678.948 534.517 679.106 536.064 679.106 537.641C679.106 540.821 678.551 543.761 677.457 546.453C676.379 549.149 674.746 551.551 672.609 553.631C670.655 555.57 668.391 557.009 665.842 557.997C663.293 558.983 660.475 559.467 657.372 559.467ZM692.226 516.624V542.525C692.226 546.346 693.142 549.271 694.974 551.352C696.841 553.402 699.441 554.44 702.834 554.44C706.192 554.44 708.812 553.418 710.623 551.393C712.455 549.343 713.35 546.402 713.35 542.525V516.624H718.88V542.846C718.88 547.893 717.41 551.912 714.485 554.924C711.539 557.941 707.642 559.467 702.834 559.467C698.006 559.467 694.114 557.941 691.148 554.924C688.187 551.912 686.701 547.893 686.701 542.846V516.624H692.226ZM733.649 539.168H738.009C740.94 539.168 743.219 538.394 744.868 536.832C746.536 535.291 747.36 533.103 747.36 530.249C747.36 527.43 746.485 525.278 744.74 523.803C742.985 522.333 740.452 521.58 737.134 521.58H733.649V539.168ZM728.211 558.622V516.624H737.185C742.013 516.624 745.854 517.881 748.693 520.394C751.527 522.908 752.962 526.281 752.962 530.463C752.962 534.482 751.578 537.768 748.836 540.333C746.109 542.881 742.553 544.174 738.228 544.174H733.649V558.622H728.211Z" fill="#9B9D9B"/>
<defs>
<linearGradient id="paint0_linear_18_2" x1="167.505" y1="66.6861" x2="512.616" y2="436.772" gradientUnits="userSpaceOnUse">
<stop stop-color="#9E6915"/>
<stop offset="0.17" stop-color="#F6D449"/>
<stop offset="0.18" stop-color="#F6D449"/>
<stop offset="0.33" stop-color="#F6E16E"/>
<stop offset="0.34" stop-color="#F6E16E"/>
<stop offset="0.53" stop-color="#C38E0F"/>
<stop offset="0.66" stop-color="#F6D449"/>
<stop offset="0.67" stop-color="#F6D449"/>
<stop offset="0.76" stop-color="#E9A818"/>
<stop offset="0.8" stop-color="#E9A818"/>
<stop offset="0.88" stop-color="#FFFF8C"/>
<stop offset="0.9" stop-color="#FFFF8C"/>
<stop offset="1" stop-color="#9E6224"/>
</linearGradient>
</defs>
</svg>
