<?xml version="1.0" standalone="no"?>
<!DOCTYPE svg PUBLIC "-//W3C//DTD SVG 20010904//EN"
 "http://www.w3.org/TR/2001/REC-SVG-20010904/DTD/svg10.dtd">
<svg version="1.0" xmlns="http://www.w3.org/2000/svg"
 width="736.000000pt" height="736.000000pt" viewBox="0 0 736.000000 736.000000"
 preserveAspectRatio="xMidYMid meet">
<metadata>
Created by potrace 1.14, written by Peter Selinger 2001-2017
</metadata>
<g transform="translate(0.000000,736.000000) scale(0.100000,-0.100000)"
fill="#000000" stroke="none">
<path d="M3130 7248 c0 -8 4 -38 9 -65 6 -27 12 -71 16 -98 3 -26 8 -52 11
-57 4 -6 29 13 56 41 l49 51 -70 72 c-40 41 -71 65 -71 56z"/>
<path d="M3276 6931 c-49 -49 -86 -93 -83 -97 3 -5 8 -33 12 -63 4 -30 9 -63
11 -75 3 -12 7 -41 10 -66 3 -25 10 -60 16 -78 l10 -33 155 156 155 155 -94
95 c-52 52 -97 95 -99 95 -2 0 -44 -40 -93 -89z"/>
<path d="M4643 6980 c-29 -17 -53 -27 -53 -23 0 5 -4 3 -8 -2 -4 -6 -65 -40
-136 -76 l-129 -66 -552 -552 c-371 -371 -546 -552 -536 -555 9 -2 34 -7 56
-10 98 -16 93 -12 100 -72 4 -29 7 -57 7 -61 0 -5 4 -16 9 -25 7 -14 108 82
562 536 l552 554 97 191 c53 105 93 191 90 191 -4 0 -31 -14 -59 -30z"/>
<path d="M3463 6538 c-176 -177 -191 -195 -187 -224 3 -29 0 -32 -65 -64 -60
-29 -97 -61 -282 -246 -117 -117 -211 -215 -209 -217 3 -3 28 -7 55 -11 28 -3
61 -8 75 -11 14 -3 41 -7 60 -10 67 -8 115 -17 123 -22 7 -4 877 860 877 872
0 3 -10 -1 -22 -9 -55 -34 -62 -31 -145 54 -44 44 -81 80 -84 80 -2 0 -90 -87
-196 -192z"/>
<path d="M3865 5784 c-467 -468 -436 -429 -421 -530 9 -68 38 -229 41 -232 6
-6 435 432 435 444 0 8 5 14 10 14 6 0 10 6 10 14 0 8 10 31 23 53 19 34 26
38 51 33 26 -5 44 11 222 189 l194 193 -84 85 -85 85 21 39 c11 22 19 41 17
42 -2 1 -197 -192 -434 -429z"/>
<path d="M2565 5923 c-82 -42 -152 -78 -154 -80 -9 -7 6 -11 59 -18 30 -4 59
-9 63 -12 4 -2 51 38 103 91 53 53 92 96 88 95 -5 0 -76 -34 -159 -76z"/>
<path d="M4370 5709 c-84 -83 -148 -155 -143 -159 4 -5 37 -11 73 -15 35 -4
67 -8 70 -10 5 -3 42 -9 125 -20 l50 -6 87 87 87 87 -93 93 c-51 52 -95 94
-99 94 -3 0 -74 -68 -157 -151z"/>
<path d="M4768 5531 c-59 -60 -56 -66 38 -76 22 -2 62 -9 88 -15 27 -6 51 -9
53 -6 6 6 -123 136 -134 135 -4 0 -25 -18 -45 -38z"/>
<path d="M1137 5464 c-1 -1 -51 -5 -112 -9 -119 -7 -135 -8 -240 -20 -38 -4
-78 -8 -87 -9 -10 0 -18 -3 -18 -6 0 -3 -12 -5 -27 -6 -28 0 -97 -10 -143 -19
-14 -3 -61 -13 -105 -21 -102 -20 -353 -81 -383 -94 -18 -8 -22 -15 -17 -31 4
-12 8 -31 10 -42 2 -12 9 -51 15 -85 15 -75 -17 -74 252 -9 103 25 205 48 225
52 21 3 63 10 93 15 93 15 133 22 175 26 22 2 56 7 75 9 204 27 683 27 865 0
17 -2 48 -6 70 -9 49 -6 188 -33 235 -46 274 -74 462 -162 653 -307 59 -46
217 -201 217 -214 0 -4 6 -14 13 -21 38 -37 141 -228 162 -298 1 -3 11 -36 23
-74 12 -37 24 -80 28 -95 52 -250 54 -488 5 -692 -28 -121 -122 -327 -222
-488 -21 -34 -39 -67 -39 -72 0 -5 -4 -9 -8 -9 -5 0 -16 -15 -25 -32 -16 -31
-32 -58 -49 -82 -5 -6 -41 -60 -82 -121 -40 -60 -92 -137 -115 -170 -22 -33
-47 -68 -54 -78 -6 -11 -28 -41 -47 -67 -19 -26 -42 -58 -50 -70 -45 -64 -421
-578 -435 -594 -5 -6 -64 -83 -129 -171 -66 -88 -124 -163 -130 -167 -13 -9
-9 -9 139 -11 121 -2 121 -2 182 79 12 16 44 57 70 90 26 34 57 74 68 90 11
15 25 32 31 38 5 6 50 65 100 131 49 66 91 122 94 125 17 16 160 212 160 220
0 6 3 10 8 10 4 0 23 24 42 53 19 28 38 54 41 57 23 21 328 470 359 530 7 14
16 27 20 30 25 20 207 364 230 435 7 22 16 45 20 50 11 15 56 190 65 255 32
223 20 484 -31 695 -8 33 -17 70 -19 82 -20 87 -117 302 -176 391 -16 24 -29
45 -29 48 0 12 -108 138 -167 196 -155 151 -408 300 -653 382 -85 28 -235 70
-295 82 -22 4 -44 8 -50 10 -5 1 -28 5 -50 9 -22 3 -51 8 -65 10 -116 22 -325
37 -538 39 -84 1 -154 1 -155 0z"/>
<path d="M5161 5226 c-5 -6 -20 -36 -34 -66 -14 -30 -71 -153 -126 -274 -56
-120 -101 -222 -101 -227 0 -5 -4 -9 -10 -9 -5 0 -10 -6 -10 -13 0 -8 -16 -46
-35 -86 -19 -39 -35 -73 -35 -75 0 -2 -21 -48 -46 -103 -25 -54 -59 -125 -74
-158 -15 -33 -69 -150 -120 -260 -51 -110 -106 -229 -123 -265 -17 -36 -31
-67 -32 -70 0 -3 -11 -25 -24 -50 -13 -25 -24 -46 -23 -47 1 -2 -57 -132 -103
-228 -56 -119 -105 -226 -106 -233 -1 -4 -14 -32 -29 -62 -15 -30 -38 -77 -50
-105 -13 -27 -42 -90 -65 -140 -23 -49 -52 -112 -65 -140 -44 -98 -152 -330
-166 -359 -8 -16 -14 -33 -14 -37 0 -5 58 -8 128 -8 l129 1 47 102 c25 55 46
105 45 110 0 5 3 12 8 15 5 3 22 35 37 71 16 36 44 97 61 135 18 39 74 160
125 270 50 110 106 229 122 265 17 36 41 88 53 115 13 28 42 91 65 140 57 123
84 181 110 240 13 28 41 88 62 135 22 47 54 114 70 150 17 36 42 90 56 120 14
30 26 57 27 60 1 3 16 37 34 75 17 39 39 86 48 105 9 19 20 42 25 50 4 8 11
22 15 30 18 44 46 104 83 185 23 50 51 110 62 135 11 25 36 79 55 120 73 157
156 336 169 368 l15 33 -126 -2 c-76 -1 -129 -6 -134 -13z"/>
<path d="M5660 5206 c-8 -17 -38 -82 -67 -143 -29 -62 -53 -117 -53 -123 0 -5
-4 -10 -10 -10 -5 0 -10 -6 -10 -14 0 -7 -21 -58 -47 -112 -26 -54 -47 -101
-48 -104 0 -3 -13 -30 -27 -60 -93 -194 -198 -425 -198 -436 0 -7 -4 -14 -8
-16 -4 -1 -21 -32 -36 -68 -28 -63 -86 -189 -148 -319 -17 -35 -46 -98 -65
-140 -19 -42 -50 -107 -68 -146 -18 -38 -43 -92 -55 -120 -13 -27 -43 -93 -67
-145 -25 -52 -45 -97 -45 -100 0 -5 -23 -51 -39 -80 -5 -8 -12 -22 -16 -30
-13 -31 -172 -378 -213 -465 -99 -212 -160 -347 -160 -355 0 -6 55 -9 129 -8
l130 1 12 31 c12 30 35 81 99 221 18 39 56 122 85 185 29 63 66 144 83 180 16
36 41 90 55 120 13 30 38 84 55 120 155 337 207 451 222 485 10 22 33 74 52
115 19 41 41 90 49 108 8 17 17 32 20 32 3 0 6 6 6 13 0 6 21 55 46 107 60
128 102 218 147 320 21 47 57 126 80 175 23 50 62 135 87 190 25 55 70 151 99
213 30 62 54 115 54 117 0 3 20 46 44 97 59 127 74 161 78 178 2 13 -16 15
-118 16 l-120 1 -14 -31z"/>
<path d="M6130 5135 c-27 -57 -69 -147 -93 -201 -25 -55 -58 -128 -75 -164
-16 -36 -39 -85 -50 -110 -11 -25 -39 -84 -61 -133 -22 -48 -39 -88 -39 -90 1
-1 -8 -20 -19 -42 -22 -40 -103 -213 -103 -219 0 -2 -20 -46 -44 -97 -24 -52
-54 -116 -66 -144 -13 -27 -36 -79 -53 -115 -16 -36 -62 -137 -102 -225 -40
-88 -88 -194 -108 -235 -47 -101 -98 -213 -167 -365 -12 -27 -47 -104 -77
-170 -31 -66 -67 -145 -80 -175 -14 -30 -40 -86 -58 -125 -17 -38 -47 -104
-65 -145 -19 -41 -44 -94 -56 -117 -12 -24 -19 -45 -16 -47 4 -2 63 -4 132 -4
l125 -1 58 132 c33 73 63 139 68 147 5 8 12 22 15 30 3 8 21 48 40 88 19 40
34 75 34 78 0 3 16 40 36 82 44 92 338 738 366 802 11 25 33 72 48 105 16 33
38 83 50 110 13 28 38 84 57 125 19 41 63 138 98 215 35 77 84 184 109 238 25
55 46 100 46 102 0 2 25 56 55 120 30 65 55 119 55 120 0 2 18 43 41 92 23 48
59 129 81 178 22 50 51 113 64 142 14 29 24 54 22 55 -1 2 5 14 15 28 9 13 17
27 17 30 0 3 -57 6 -126 7 l-126 1 -48 -103z"/>
<path d="M6693 5232 c-12 -8 -53 -90 -53 -107 0 -6 -5 -16 -12 -23 -6 -6 -17
-26 -23 -44 -7 -18 -55 -127 -107 -243 -52 -115 -105 -232 -117 -260 -12 -27
-28 -61 -36 -75 -7 -14 -14 -29 -15 -35 -1 -5 -12 -32 -25 -60 -12 -27 -37
-80 -54 -117 -17 -37 -42 -95 -56 -128 -14 -34 -44 -100 -65 -146 -22 -46 -40
-86 -40 -89 0 -4 -57 -130 -102 -225 -12 -25 -22 -47 -23 -50 -5 -25 -31 -80
-37 -80 -4 0 -8 -6 -8 -14 0 -8 -18 -54 -41 -103 -22 -48 -47 -101 -54 -118
-7 -16 -27 -59 -43 -95 -16 -36 -44 -99 -62 -140 -18 -41 -46 -103 -61 -138
-16 -34 -30 -65 -31 -70 -1 -4 -22 -50 -46 -101 -41 -90 -64 -140 -67 -151 0
-3 -11 -25 -24 -50 -13 -25 -24 -46 -23 -47 2 -10 -12 -43 -19 -43 -5 0 -8 -3
-7 -7 1 -9 -7 -31 -51 -125 -16 -37 -37 -83 -45 -102 l-14 -34 130 -1 130 0
35 77 c42 92 73 161 72 165 0 1 16 35 35 74 20 40 36 75 36 77 0 3 12 31 26
63 42 92 57 126 149 333 48 107 100 223 116 258 16 35 29 65 29 67 0 2 20 47
45 99 25 53 45 98 45 100 0 2 15 37 34 78 64 137 186 418 186 428 0 6 5 10 10
10 6 0 10 6 10 14 0 12 18 55 95 221 32 69 58 129 59 135 1 3 9 21 18 40 9 19
38 85 66 145 27 61 60 133 72 160 13 28 24 52 25 55 8 31 31 80 37 80 4 0 8 7
8 15 0 13 40 109 61 145 5 8 12 22 15 30 3 8 16 38 29 65 46 103 53 95 -82 94
-66 0 -124 -3 -130 -7z"/>
<path d="M1097 5024 c-1 -1 -46 -5 -99 -9 -53 -3 -107 -8 -120 -10 -13 -3 -43
-7 -68 -9 -51 -6 -113 -14 -150 -22 -14 -2 -42 -7 -63 -9 -21 -3 -68 -12 -105
-20 -37 -8 -78 -17 -92 -19 -14 -3 -79 -19 -145 -36 -66 -17 -130 -34 -142
-37 -24 -6 -25 -19 -3 -103 5 -19 11 -52 14 -74 8 -51 14 -59 40 -51 11 3 28
8 36 10 45 13 292 74 321 79 19 3 68 12 110 20 41 8 101 18 133 21 31 4 66 8
78 10 106 21 634 29 753 11 33 -4 71 -9 85 -11 31 -3 149 -26 215 -42 17 -4
33 -6 38 -5 4 1 7 -3 7 -9 0 -5 4 -8 9 -5 9 6 136 -40 230 -85 288 -136 473
-383 519 -694 11 -75 7 -295 -7 -340 -6 -22 -14 -50 -17 -63 -9 -42 -83 -204
-130 -286 -48 -82 -153 -247 -164 -256 -3 -3 -27 -36 -52 -75 -26 -38 -107
-155 -181 -260 -75 -104 -159 -224 -188 -265 -30 -41 -56 -77 -59 -80 -3 -3
-50 -68 -105 -145 -54 -77 -102 -141 -107 -143 -4 -2 -8 -10 -8 -17 0 -7 -3
-15 -8 -17 -4 -2 -61 -77 -127 -168 -66 -91 -123 -166 -127 -168 -5 -2 -8 -8
-8 -13 0 -8 -84 -124 -120 -166 -5 -7 -10 -16 -10 -22 0 -5 -4 -11 -8 -13 -11
-5 -60 -71 -64 -87 -2 -11 21 -14 120 -15 l124 -1 76 100 c42 55 79 102 83
105 3 3 8 10 10 15 2 6 78 109 168 230 91 121 211 283 268 360 56 77 106 145
111 150 4 6 32 46 62 89 30 44 62 87 70 97 8 9 53 72 100 140 46 68 87 126 90
129 3 3 16 22 28 43 12 20 26 43 32 50 40 46 216 338 269 446 84 174 115 300
114 471 -1 175 -22 308 -74 455 -28 81 -90 206 -115 236 -8 8 -14 21 -14 27 0
7 -4 12 -10 12 -5 0 -10 5 -10 10 0 24 -145 168 -232 230 -113 81 -301 167
-466 215 -84 24 -101 28 -162 40 -14 3 -34 7 -45 9 -50 10 -112 17 -260 32
-56 6 -443 13 -448 8z"/>
<path d="M3600 4939 l-92 -90 7 -42 c13 -75 16 -92 19 -94 2 -2 39 69 84 157
45 88 80 160 78 160 -2 0 -45 -41 -96 -91z"/>
<path d="M1097 4564 c-1 -1 -47 -5 -102 -9 -117 -8 -170 -13 -205 -20 -14 -3
-45 -8 -70 -11 -80 -10 -130 -19 -270 -50 -63 -15 -124 -31 -135 -37 -11 -6
-20 -9 -20 -7 0 8 -100 -24 -107 -33 -3 -6 -2 -21 3 -35 5 -14 12 -42 14 -63
3 -21 9 -48 14 -61 4 -13 6 -29 4 -36 -6 -14 14 -12 91 12 46 15 241 58 316
71 19 3 47 8 62 11 15 3 42 7 60 9 18 3 51 7 73 11 45 7 68 10 210 20 199 15
529 6 607 -16 16 -5 33 -9 37 -8 3 0 8 -1 11 -2 3 -1 18 -4 34 -6 42 -7 174
-53 221 -76 176 -90 291 -242 311 -413 18 -156 1 -246 -75 -390 -43 -83 -180
-302 -206 -331 -5 -6 -17 -22 -25 -34 -34 -51 -249 -347 -354 -487 -17 -23
-39 -52 -48 -65 -57 -78 -188 -255 -197 -265 -6 -7 -11 -16 -11 -22 0 -5 -4
-11 -8 -13 -5 -1 -42 -48 -82 -103 -41 -55 -124 -167 -185 -250 -61 -82 -167
-224 -234 -315 -67 -91 -129 -173 -137 -184 -10 -11 -12 -21 -6 -25 6 -3 63
-5 128 -5 127 1 119 -2 166 65 41 56 178 243 260 352 48 65 88 120 88 123 0 3
6 12 13 19 19 22 27 32 116 155 47 63 108 147 136 185 173 235 306 419 399
550 58 83 109 155 114 160 4 6 31 44 60 85 28 41 55 80 59 85 5 6 24 35 43 65
19 30 37 57 40 60 25 24 118 216 145 300 61 191 23 446 -94 627 -118 184 -340
314 -626 369 -11 2 -31 6 -45 9 -14 2 -45 7 -70 10 -25 3 -63 8 -85 11 -40 5
-433 13 -438 8z"/>
<path d="M1116 4123 c-1 -1 -38 -5 -81 -8 -117 -9 -214 -20 -330 -39 -11 -2
-40 -7 -65 -10 -89 -14 -290 -57 -327 -70 -39 -14 -41 -20 -29 -76 3 -14 11
-50 17 -80 7 -30 15 -59 19 -63 4 -5 34 -1 66 7 62 16 185 42 244 51 19 3 46
7 60 10 14 3 45 7 69 10 23 3 55 7 70 9 105 18 261 27 451 28 436 1 544 -43
543 -218 0 -60 -10 -86 -75 -204 -16 -31 -51 -83 -58 -90 -3 -3 -14 -18 -24
-35 -11 -16 -76 -106 -146 -200 -70 -93 -220 -296 -334 -449 -115 -154 -213
-284 -218 -290 -5 -6 -34 -45 -64 -86 -30 -41 -61 -83 -69 -92 -8 -10 -38 -50
-67 -90 -29 -40 -55 -75 -58 -78 -3 -3 -30 -39 -60 -80 -30 -41 -57 -77 -60
-80 -3 -3 -17 -21 -30 -40 -14 -19 -28 -39 -33 -45 -4 -5 -60 -80 -123 -165
-63 -85 -120 -162 -127 -170 -39 -47 -107 -150 -100 -151 4 0 60 -2 123 -3
l115 -1 32 32 c17 18 46 55 64 83 18 27 35 50 39 50 3 0 14 14 24 31 10 16 46
66 79 110 34 45 69 90 77 102 14 21 155 211 172 232 5 6 32 42 61 80 28 39 54
72 57 75 3 3 23 30 45 60 22 30 43 60 48 65 4 6 28 37 52 70 25 33 51 67 58
75 7 8 24 32 37 52 14 21 28 38 33 38 4 0 7 5 7 11 0 6 6 17 13 24 65 73 590
801 622 862 10 21 24 45 31 53 29 37 76 186 77 245 2 100 -48 224 -115 288
-83 79 -235 132 -445 153 -55 6 -362 12 -367 7z"/>
<path d="M6349 3080 c-4 -104 -1 -859 4 -866 3 -5 53 -8 111 -6 l106 3 0 132
c2 621 1 749 -4 755 -3 3 -53 6 -111 6 l-105 1 -1 -25z"/>
<path d="M6807 3100 c-9 -4 -12 -108 -12 -445 l0 -440 113 -3 112 -3 0 446 c0
417 -1 445 -17 446 -58 4 -186 3 -196 -1z"/>
<path d="M3772 1988 l3 -113 1793 0 1792 0 0 112 0 113 -1795 0 -1796 0 3
-112z"/>
<path d="M3812 1652 l-43 -3 3 -111 3 -112 1790 0 1790 0 3 112 3 112 -148 0
c-81 0 -870 1 -1753 3 -883 1 -1624 1 -1648 -1z"/>
<path d="M89 1199 c-5 -3 -8 -33 -6 -68 2 -34 0 -64 -3 -66 -10 -6 1 -74 13
-82 8 -5 2851 -8 3012 -4 19 1 20 7 19 106 -1 58 -4 108 -8 112 -7 8 -3014 10
-3027 2z"/>
<path d="M3787 1202 c-15 -3 -17 -18 -17 -113 0 -80 3 -109 13 -110 14 -1
3546 -1 3565 0 9 1 12 30 12 111 0 98 -2 110 -17 111 -56 3 -3542 3 -3556 1z"/>
<path d="M6349 855 c-1 -14 -1 -736 0 -757 1 -16 13 -18 111 -18 l110 0 0 78
c2 472 1 695 -4 699 -10 11 -216 8 -217 -2z"/>
<path d="M6801 860 c-3 -3 -6 -178 -6 -390 l0 -385 113 -3 112 -3 0 391 0 390
-22 1 c-89 4 -191 3 -197 -1z"/>
<path d="M91 750 c-10 -7 -21 -50 -13 -50 6 0 8 -101 2 -125 -1 -5 -2 -18 -1
-27 1 -17 80 -18 1521 -18 1209 0 1520 3 1521 13 6 73 2 207 -6 208 -37 4
-3018 3 -3024 -1z"/>
<path d="M83 292 c-3 -7 -3 -21 0 -32 3 -11 2 -22 -3 -25 -4 -3 -5 -20 -1 -37
9 -37 7 -91 -4 -107 -4 -8 435 -11 1519 -11 839 0 1526 3 1527 8 5 42 2 197
-3 205 -11 18 -3029 17 -3035 -1z"/>
</g>
</svg>
