<?xml version="1.0" encoding="UTF-8" standalone="no"?>
<!-- Created with Inkscape (http://www.inkscape.org/) -->

<svg
   width="30.758213mm"
   height="13.352412mm"
   viewBox="0 0 30.758213 13.352412"
   version="1.1"
   id="svg1"
   xml:space="preserve"
   inkscape:version="1.3.2 (091e20ef0f, 2023-11-25, custom)"
   sodipodi:docname="aa1.svg"
   xmlns:inkscape="http://www.inkscape.org/namespaces/inkscape"
   xmlns:sodipodi="http://sodipodi.sourceforge.net/DTD/sodipodi-0.dtd"
   xmlns:xlink="http://www.w3.org/1999/xlink"
   xmlns="http://www.w3.org/2000/svg"
   xmlns:svg="http://www.w3.org/2000/svg"><sodipodi:namedview
     id="namedview1"
     pagecolor="#505050"
     bordercolor="#ffffff"
     borderopacity="1"
     inkscape:showpageshadow="0"
     inkscape:pageopacity="0"
     inkscape:pagecheckerboard="1"
     inkscape:deskcolor="#d1d1d1"
     inkscape:document-units="mm"
     inkscape:zoom="5.6568543"
     inkscape:cx="65.407377"
     inkscape:cy="45.343222"
     inkscape:window-width="1920"
     inkscape:window-height="1063"
     inkscape:window-x="0"
     inkscape:window-y="17"
     inkscape:window-maximized="1"
     inkscape:current-layer="layer1" /><defs
     id="defs1"><linearGradient
       id="linearGradient64"
       inkscape:collect="always"><stop
         style="stop-color:#dac100;stop-opacity:1;"
         offset="0"
         id="stop64" /><stop
         style="stop-color:#0090b3;stop-opacity:1;"
         offset="1"
         id="stop65" /></linearGradient><linearGradient
       id="swatch53"><stop
         style="stop-color:#f5b800;stop-opacity:1;"
         offset="0"
         id="stop53" /><stop
         style="stop-color:#0098f6;stop-opacity:1;"
         offset="0.54302675"
         id="stop55" /><stop
         style="stop-color:#e1b300;stop-opacity:1;"
         offset="1"
         id="stop56" /></linearGradient><rect
       x="398.02567"
       y="390.86444"
       width="51.052628"
       height="47.587517"
       id="rect8" /><linearGradient
       inkscape:collect="always"
       xlink:href="#swatch53"
       id="linearGradient54"
       gradientUnits="userSpaceOnUse"
       x1="91.938919"
       y1="132.83353"
       x2="104.14485"
       y2="132.83353"
       spreadMethod="pad" /><linearGradient
       inkscape:collect="always"
       xlink:href="#linearGradient64"
       id="linearGradient65"
       x1="73.383803"
       y1="138.45157"
       x2="104.14769"
       y2="138.45157"
       gradientUnits="userSpaceOnUse" /></defs><path
     style="font-size:10.5833px;line-height:1.25;font-family:Monoton;-inkscape-font-specification:Monoton;display:inline;fill:url(#linearGradient54);fill-opacity:1;stroke-width:0.264583"
     d="m 92.073275,135.81005 v -0.37207 h 5.043603 v 0.37207 z m 0,0.74414 v -0.37207 h 5.043603 v 0.37207 z m 0,0.74413 v -0.37206 h 5.043603 v 0.37206 z m 0.573606,-2.06705 h -0.43408 q 0.361733,-0.49092 0.713132,-0.96117 0.351399,-0.47026 0.583942,-0.78032 0.237711,-0.31522 0.459919,-0.61494 0.222208,-0.29973 0.356566,-0.48059 0.139526,-0.18087 0.263549,-0.3514 0.124023,-0.17053 0.186034,-0.26355 0.06201,-0.0982 0.108521,-0.18604 0.05168,-0.0878 0.06718,-0.13952 0.0155,-0.0568 0.0155,-0.10852 0,-0.23771 -0.19637,-0.30489 -0.19637,-0.0672 -0.692462,-0.0672 -0.80615,0 -1.6123,0.21187 l -0.07751,-0.35656 q 0.129191,-0.0568 0.651121,-0.1447 0.527098,-0.093 1.012855,-0.093 0.294554,0 0.511595,0.0362 0.21704,0.031 0.392739,0.11369 0.180867,0.0775 0.273885,0.23254 0.09302,0.14986 0.09302,0.37207 0,0.22221 -0.227376,0.56844 -0.227375,0.34623 -1.167883,1.60196 -0.764809,1.01802 -1.281572,1.71565 z m 0.842323,0 h -0.43408 q 1.927524,-2.59414 2.139397,-2.89903 0.434081,-0.62012 0.485757,-0.88367 0.0155,-0.0724 0.0155,-0.15503 0,-1.0697 -1.622635,-1.0697 -0.496092,0 -1.007687,0.0879 -0.511595,0.0879 -0.749306,0.1757 l -0.07235,-0.35656 q 0.883664,-0.27389 1.834508,-0.27389 0.330728,0 0.60978,0.0465 0.284219,0.0413 0.542601,0.14469 0.258381,0.10336 0.439248,0.26872 0.180867,0.1602 0.284219,0.40824 0.10852,0.24805 0.10852,0.56844 0,0.33073 -0.32556,0.83199 -0.32556,0.50126 -1.948195,2.6975 -0.19637,0.26355 -0.299723,0.40824 z m 0.862994,0 h -0.434081 q 1.762161,-2.40811 2.139398,-2.99722 0.377237,-0.59428 0.377237,-0.99218 0,-0.48576 -0.191203,-0.83716 -0.186034,-0.3514 -0.527098,-0.54777 -0.335895,-0.19637 -0.744138,-0.28422 -0.403075,-0.0879 -0.899167,-0.0879 -0.956011,0 -1.906854,0.28939 l -0.07752,-0.37724 q 1.018023,-0.29972 1.968866,-0.29972 0.465087,0 0.862994,0.0672 0.397907,0.0672 0.749306,0.22738 0.356566,0.15502 0.599445,0.3979 0.248046,0.24288 0.392739,0.61495 0.144694,0.3669 0.144694,0.83716 0,0.33589 -0.160197,0.68729 -0.155028,0.34623 -0.651121,1.05936 -0.490924,0.71314 -1.643305,2.24275 z m 0.893999,0 h -0.43408 q 1.090369,-1.44176 1.576126,-2.16523 0.490925,-0.72864 0.640786,-1.10071 0.149861,-0.37723 0.149861,-0.77514 0,-0.50643 -0.155029,-0.91467 -0.149861,-0.41341 -0.428913,-0.69246 -0.273884,-0.28422 -0.661456,-0.47542 -0.387572,-0.19121 -0.852659,-0.27906 -0.459918,-0.0878 -0.997352,-0.0878 -0.992184,0 -2.06705,0.31006 l -0.07751,-0.3669 q 1.09037,-0.31522 2.13423,-0.31522 0.775144,0 1.400427,0.17053 0.630451,0.16536 1.095537,0.50126 0.470254,0.33589 0.723468,0.88366 0.258381,0.54777 0.258381,1.26607 0,0.45475 -0.149861,0.85783 -0.144694,0.40307 -0.640786,1.14204 -0.490924,0.73897 -1.514115,2.04121 z m 7.591243,2.06705 h -0.37207 v -1.29707 h 0.37207 z m 0.74414,0 h -0.37207 v -1.29707 h 0.37207 z m -0.74414,-3.52948 h -0.37207 v -1.48311 h 0.37207 z m 0.74414,0 h -0.37207 v -1.48311 h 0.37207 z m -5.389835,0.55293 v -0.37207 h 5.953105 v 0.37207 z m 0,0.74414 v -0.37207 h 5.953105 v 0.37207 z m 0,0.74414 v -0.37207 h 5.953105 v 0.37207 z m 2.309925,-7.06415 0.42892,-0.005 -2.315099,5.02294 H 98.18141 Z m 0.8475,0 h 0.41341 l -2.304766,5.01777 h -0.434081 z m 0.83198,0 h 0.42375 l -2.28409,5.01777 h -0.434083 z m 0.84749,0 0.42892,-0.005 -2.24275,5.02294 h -0.43408 z"
     id="path16"
     transform="translate(-73.386638,-125.35828)" /><g
     inkscape:label="Layer 1"
     inkscape:groupmode="layer"
     id="layer1"
     transform="translate(-73.386639,-125.35828)"><path
       style="display:inline;fill:none;stroke:url(#linearGradient65);stroke-width:0.64484;stroke-linecap:butt;stroke-linejoin:miter;stroke-dasharray:none;stroke-opacity:1"
       d="m 104.1475,138.44257 -30.763508,0.018"
       id="path11" /><g
       style="display:inline;fill:#ffffff;fill-opacity:1"
       id="g15"
       transform="matrix(0.16587265,0,0,0.16587265,79.96246,125.33074)"><path
         fill-rule="evenodd"
         clip-rule="evenodd"
         d="M 8.80873,1.62329 7.35145,0.166015 7.74995,2.68207 Z M 8.01376,4.34769 9.77344,2.58801 11.7029,4.51744 8.54138,7.67893 Z M 7.45731,10.6924 8.90207,9.95628 8.80519,9.34455 12.6676,5.48215 14.3605,7.17507 15.3249,6.68368 6.5292,15.4794 3.19797,14.9518 Z M 3.52351,12.6968 0.0701497,14.4564 1.53235,14.688 Z M 8.19482,15.7432 9.86041,16.007 10.1242,17.6726 21.188,6.60885 23.1924,2.67498 19.2587,4.67931 Z m 10.98888,-5.2006 -8.7957,8.7957 0.5276,3.3312 4.2593,-4.2593 0.7362,-1.4449 0.6118,0.0969 3.8624,-3.8623 -1.693,-1.693 z m 2.1663,3.622 -3.1615,3.1614 3.3313,0.5277 1.7596,-1.7597 z m 2.8941,2.8941 -1.0587,1.0588 2.516,0.3985 z m -11.0736,5.2853 -1.991,1.9911 0.2315,1.4622 z"
         fill="#6986e7"
         id="path1"
         style="fill:#ffffff;fill-opacity:1" /></g><path
       style="font-size:10.5833px;line-height:1.25;font-family:Monoton;-inkscape-font-specification:Monoton;white-space:pre;shape-inside:url(#rect8);display:inline;fill:#fdfeff;fill-opacity:1;stroke-width:0.264583"
       d="m 79.21622,133.53629 -0.01034,-0.005 q 0.583941,-0.56843 0.583941,-1.38492 0,-0.77514 -0.578774,-1.34358 -0.573606,-0.57361 -1.359086,-0.57361 h -4.09276 v 7.06931 h -0.372069 v -7.44138 h 4.464829 q 0.60978,0 1.142046,0.31523 0.537433,0.31005 0.852658,0.84232 0.315226,0.5271 0.315226,1.13171 0,0.82682 -0.444416,1.4211 0.444416,0.61495 0.444416,1.35392 0,0.70796 -0.320393,1.25056 -0.320393,0.53744 -0.842323,0.81132 -0.516763,0.27388 -1.147214,0.27388 h -2.35127 v -0.37207 h 2.35127 q 0.795815,0 1.364254,-0.56327 0.573606,-0.56844 0.573606,-1.40042 0,-0.38241 -0.165364,-0.75448 -0.165364,-0.37207 -0.41341,-0.62528 0,-0.005 0.0052,-0.005 z m -1.364254,1.86035 h -2.35127 v 0.37207 h 2.35127 q 0.341064,0 0.578775,-0.22738 0.242878,-0.23254 0.242878,-0.62011 0,-0.3359 -0.248046,-0.58911 -0.248046,-0.25838 -0.573607,-0.25838 h -2.356437 v 0.37206 h 2.356437 q 0.1757,0 0.310058,0.1447 0.139526,0.14469 0.139526,0.33073 0,0.22737 -0.129191,0.35139 -0.12919,0.12403 -0.320393,0.12403 z m 0,0.74414 h -2.35127 v 0.37207 h 2.35127 q 0.640786,0 1.100705,-0.45476 0.465086,-0.45991 0.465086,-1.13687 0,-0.42892 -0.232543,-0.80615 -0.227375,-0.38241 -0.604612,-0.58911 0.377237,-0.19637 0.604612,-0.55811 0.232543,-0.3669 0.232543,-0.82165 0,-0.62011 -0.470254,-1.08003 -0.465086,-0.46509 -1.095537,-0.46509 h -3.720691 v 6.69724 h 0.372069 v -6.32517 h 3.348622 q 0.475422,0 0.831988,0.35657 0.361734,0.35139 0.361734,0.81648 0,0.51676 -0.351398,0.85266 -0.351399,0.33073 -0.842324,0.33073 h -1.136878 -1.214392 v 0.37207 h 1.214392 1.136878 q 0.475422,0 0.831988,0.3669 0.361734,0.3669 0.361734,0.85266 0,0.53743 -0.351398,0.87849 -0.351399,0.34107 -0.842324,0.34107 z m 0,-3.55533 h -2.35127 v 0.37207 h 2.35127 q 0.346231,0 0.583942,-0.21704 0.237711,-0.22221 0.237711,-0.59428 0,-0.31522 -0.248046,-0.5581 -0.248046,-0.24288 -0.573607,-0.24288 h -2.976553 v 5.9531 h 0.372069 v -5.58103 h 2.604484 q 0.1757,0 0.310058,0.13436 0.139526,0.12919 0.139526,0.29455 0,0.21187 -0.129191,0.32556 -0.12919,0.11369 -0.320393,0.11369 z m 5.395003,-2.72851 h 0.372069 v 7.44138 h -0.372069 z m -0.744139,0 h 0.37207 v 7.44138 h -0.37207 z m -0.744138,0 h 0.372069 v 7.44138 h -0.372069 z m -0.744138,0 h 0.372069 v 7.44138 h -0.372069 z m 10.268074,5.58104 v 0.37207 h -2.888703 l 0.237711,-0.37207 z m 0,0.74414 v 0.37207 h -3.348622 l 0.232543,-0.37207 z m 0,0.74414 v 0.37206 h -3.762032 l 0.227376,-0.37206 z m -6.743753,-5.2038 v -0.37207 h 2.893871 l -0.232543,0.37207 z m 0,-0.74414 v -0.37207 h 3.327952 l -0.237711,0.37207 z m 0,-0.74414 v -0.37207 h 3.74653 l -0.248046,0.37207 z m 2.619987,7.06414 h -0.459919 l 4.630194,-7.43621 v 0.63045 z m -0.919837,0 h -0.454751 l 4.640528,-7.43621 h 0.449584 z m -0.919838,0 h -0.454751 l 4.630194,-7.43621 h 0.459918 z m -0.91467,0 v -0.75447 l 4.175443,-6.68174 h 0.459918 z"
       id="path15"
       transform="translate(1.2083333e-6)" /></g></svg>
