<svg width="150" height="150" fill="none" xmlns="http://www.w3.org/2000/svg"><defs><clipPath id="a"><rect width="150" height="150" rx="75" fill="#fff"/></clipPath></defs><path d="M74.941 0c-13.96.223-26.537 3.614-37.838 10.291-11.232 6.62-20.2 15.585-26.873 26.875C3.611 48.403.164 61.036 0 74.996v.063c.053 2.612.165 5.228.436 7.73a72.02 72.02 0 0 0 1.002 6.898c.229 1.055.455 2.178.732 3.229v.055c1.666 7.014 4.389 13.635 8.06 19.918.444.834.947 1.616 1.514 2.394.532.85 1.085 1.684 1.652 2.508a85.165 85.165 0 0 0 2.307 3.176 74.105 74.105 0 0 0 6.72 7.57 74.517 74.517 0 0 0 8.973 7.522 79.01 79.01 0 0 0 5.707 3.703c1.217.72 2.448 1.4 3.694 2.039a72.142 72.142 0 0 0 10.549 4.42 77.534 77.534 0 0 0 6.289 1.777c.16.036.304.072.463.105a75.403 75.403 0 0 0 8.875 1.452c2.609.27 5.269.42 7.969.443h.054a85.174 85.174 0 0 0 8.016-.443 77.176 77.176 0 0 0 8.896-1.457 74.013 74.013 0 0 0 6.758-1.877 71.107 71.107 0 0 0 10.486-4.42 69.02 69.02 0 0 0 3.678-2.04 53.045 53.045 0 0 0 3.06-1.89c.278-.165.554-.388.838-.61h.053a61.95 61.95 0 0 0 1.73-1.187 68.844 68.844 0 0 0 5.778-4.547h.055c.339-.336.623-.552.949-.884.303-.274.611-.558.908-.838.458-.425.904-.853 1.346-1.284a70.055 70.055 0 0 0 5.478-6.005v-.057c.403-.491.808-.983 1.194-1.48a70.777 70.777 0 0 0 2.334-3.16 89.68 89.68 0 0 0 1.927-2.874v-.05c.445-.61.839-1.336 1.225-2.006 3.725-6.23 6.394-12.851 8.068-19.918.28-1.059.558-2.169.72-3.223v-.06c.448-2.282.837-4.562 1.062-6.899.217-2.502.388-5.118.443-7.73v-.063c-.227-13.906-3.615-26.593-10.293-37.83-6.62-11.29-15.579-20.256-26.875-26.875C101.59 3.614 88.967.223 74.996 0zm54.689 121.07a86.195 86.195 0 0 1-2.605 2.893 74.08 74.08 0 0 1 .095-.102 88.728 88.728 0 0 0 2.51-2.791zm-102.72 6.82c.463.422.928.838 1.404 1.25.338.274.719.609 1.108.889-.325-.235-.637-.499-.93-.742l-.178-.147-.203-.177a94.054 94.054 0 0 1-1.201-1.073zm6.176 4.979c.867.637 1.739 1.27 2.625 1.885-.117-.081-.232-.163-.348-.245a134.8 134.8 0 0 1-2.277-1.64zm2.627 1.892c.032.016.06.032.092.047.282.148.534.295.822.485l.033.021a7.774 7.774 0 0 0-.947-.553zm78.119.276c-.947.56-1.84 1.114-2.78 1.668-.275.17-.553.334-.837.502-.781.445-1.514.833-2.223 1.222-.663.342-1.32.677-1.982 1l-.002-.002c.669-.322 1.323-.655 1.982-1 .712-.386 1.444-.775 2.225-1.22.283-.168.56-.331.833-.502.943-.554 1.837-1.115 2.784-1.668zm-77.168.277c.722.444 1.495.949 2.271 1.39-.631-.361-1.248-.756-1.851-1.13l-.1-.06-.32-.2zm18.57 8.406c1.054.3 2.116.574 3.185.825a82.64 82.64 0 0 0 .217.046l-.217-.046-.218-.053a71.14 71.14 0 0 1-2.868-.744l-.1-.028z" fill="#f9f9f9"/><g clip-path="url(#a)"><path d="M103.54 121.56h-.172c0 .03-.02.099-.049.211.109-.115.221-.171.221-.211zM115.24 129.33c-1.437 1.042-3.073 2.212-6.204 2.212-3.132 0-4.761-1.17-6.204-2.212-1.392-1.005-2.595-1.872-5.143-1.872-2.545 0-3.751.867-5.142 1.872-1.44 1.042-3.08 2.212-6.204 2.212-3.129 0-4.76-1.17-6.201-2.212-1.401-1.005-2.601-1.872-5.144-1.872-2.545 0-3.752.867-5.148 1.872-1.439 1.042-3.072 2.212-6.2 2.212-3.13 0-4.764-1.17-6.203-2.212-1.398-1.005-2.6-1.872-5.144-1.872-2.541 0-3.75.867-5.148 1.872-1.439 1.042-3.072 2.212-6.204 2.212-3.126 0-4.76-1.17-6.205-2.212-1.39-1.005-2.596-1.872-5.141-1.872-1.106 0-1.965.164-2.69.435.463.422.928.837 1.404 1.249.338.274.719.61 1.108.89 2.01 1.668 4.127 3.224 6.288 4.724.338.172.614.337.953.561.721.444 1.494.949 2.27 1.391.726.442 1.512.837 2.233 1.279l.116.112.277.109c.792.425 1.594.837 2.4 1.226.791-.34 1.44-.805 2.138-1.309 1.434-1.035 3.072-2.212 6.2-2.212 3.126 0 4.764 1.177 6.205 2.212 1.39 1.006 2.6 1.875 5.144 1.875 2.547 0 3.745-.869 5.143-1.875 1.437-1.035 3.07-2.212 6.204-2.212 3.13 0 4.758 1.177 6.202 2.212C82.59 139.131 83.8 140 86.343 140c2.545 0 3.751-.869 5.142-1.875 1.448-1.035 3.072-2.212 6.204-2.212 3.135 0 4.76 1.177 6.207 2.212.689.501 1.336.963 2.117 1.306a96.923 96.923 0 0 0 1.984-.999c.709-.389 1.441-.778 2.222-1.223.284-.168.561-.33.834-.501.943-.554 1.836-1.115 2.783-1.668.055-.057.112-.112.112-.112.22-.172.497-.33.781-.501 0-.057.049-.057.109-.057h-.06c2.169-1.447 4.171-3.003 6.178-4.618.336-.336.669-.61 1.002-.834 0-.056 0-.056.053-.056h-.053c.33-.277.613-.557.94-.834.049-.043.108-.096.155-.145-.716-.264-1.567-.425-2.671-.425-2.538 0-3.744.867-5.142 1.872z" fill="#2a3c93"/><path d="M46.54 125.1c-.006.017-.013.029-.02.046.014.026.02.007.02-.046zM103.03 122.52c.139-.336.238-.587.291-.752a.947.947 0 0 0-.291.752z" fill="#c79421"/><path d="m46.52 125.15.021-.046c0 .053-.008.069-.021.046zm79.009-6.089c-1.397-1.005-2.601-1.869-5.146-1.869-2.541 0-3.747.864-5.145 1.869-1.437 1.039-3.073 2.212-6.204 2.212-2.235 0-3.705-.6-4.892-1.322-.468-.286-.9-.593-1.312-.89-1.392-1.005-2.598-1.869-5.143-1.869-1.793 0-2.92.429-3.916 1.035-.416.251-.814.534-1.223.834-1.447 1.039-3.082 2.212-6.207 2.212-3.132 0-4.757-1.173-6.204-2.212-1.398-1.005-2.598-1.869-5.143-1.869s-3.75.864-5.147 1.869c-1.44 1.039-3.073 2.212-6.198 2.212-3.133 0-4.766-1.173-6.204-2.212-.43-.306-.837-.596-1.274-.867-.989-.587-2.11-1.002-3.869-1.002-2.544 0-3.753.864-5.15 1.869-.429.307-.867.63-1.37.926-1.175.706-2.63 1.286-4.834 1.286-3.122 0-4.76-1.173-6.201-2.212-1.395-1.005-2.6-1.869-5.144-1.869-2.547 0-3.752.864-5.141 1.869-1.091.781-2.29 1.645-4.157 2.018a83.914 83.914 0 0 0 5.169 5.468c1.056-.52 2.349-.903 4.129-.903 3.131 0 4.758 1.177 6.204 2.216 1.397 1.002 2.6 1.872 5.14 1.872 2.546 0 3.754-.87 5.151-1.872 1.44-1.039 3.073-2.216 6.204-2.216 3.124 0 4.76 1.177 6.206 2.216 1.39 1.002 2.596 1.872 5.14 1.872 2.546 0 3.744-.87 5.142-1.872 1.438-1.039 3.075-2.216 6.204-2.216 3.132 0 4.763 1.177 6.204 2.216 1.391 1.002 2.598 1.872 5.143 1.872 2.548 0 3.751-.87 5.142-1.872 1.444-1.039 3.072-2.216 6.204-2.216 3.132 0 4.76 1.177 6.204 2.216 1.398 1.002 2.598 1.872 5.143 1.872s3.754-.87 5.149-1.872c1.44-1.039 3.073-2.216 6.2-2.216 1.771 0 3.056.376 4.105.891a79.68 79.68 0 0 0 5.142-5.463v-.003c-1.839-.376-3.026-1.233-4.101-2.008zM97.687 137.72c-2.545 0-3.748.868-5.14 1.87-1.446 1.041-3.081 2.215-6.203 2.215-3.135 0-4.76-1.174-6.207-2.215-1.395-1.002-2.598-1.87-5.143-1.87s-3.75.868-5.147 1.87c-1.438 1.041-3.073 2.215-6.198 2.215-3.133 0-4.767-1.174-6.204-2.215-1.398-1.002-2.596-1.87-5.141-1.87-2.546 0-3.755.868-5.152 1.87-.361.263-.735.534-1.148.79a69.721 69.721 0 0 0 12.417 4.161 82.348 82.348 0 0 0 14.282 1.882c.742.033 1.489.056 2.242.076h.05c.78-.013 1.549-.036 2.32-.069 9.54-.392 18.434-2.403 26.65-6.06-.403-.253-.773-.52-1.135-.78-1.392-1.002-2.598-1.87-5.143-1.87z" fill="#2a3c93"/><path d="M146.44 75.058c-.053 2.502-.165 4.895-.448 7.289l-54.627-7.961V49.96H58.591v24.426l-54.638 7.96c-.222-2.393-.389-4.786-.442-7.288v-.061c.165-13.297 3.382-25.314 9.786-36.048 6.342-10.684 14.859-19.252 25.644-25.656 10.68-6.34 22.7-9.567 36.004-9.679h.054c13.29.112 25.31 3.34 36.058 9.679 10.737 6.403 19.252 14.972 25.644 25.656 6.336 10.79 9.573 22.75 9.738 36.048zM86.463 56.36c-.161-.277-.452-.503-.837-.503-.39 0-.666.226-.893.56-.221.281-.27.838-.327 1.615l-1.727-.28c.046-1.448.392-2.448.946-3.06a2.454 2.454 0 0 1 2-1.002c.953 0 1.616.389 2.17 1.114.56.725.784 1.614.784 2.728 0 .608-.059 1.169-.224 1.723a17.881 17.881 0 0 1-.67 1.781c-.22.388-.668 1.003-1.222 1.724-.56.78-.887 1.278-.999 1.502-.165.277-.277.501-.392.727h3.507v2.5h-6.131c.066-.944.277-1.836.567-2.67.333-.836 1.002-1.892 2-3.225.782-1.115 1.287-1.894 1.389-2.284.284-.499.45-1.06.45-1.617 0-.553-.166-1.053-.391-1.333zm-10.745 2.506c-.22-.5-.33-1.06-.33-1.61 0-1.06.226-1.895.719-2.51.506-.667 1.12-1.056 2.009-1.056.837 0 1.56.389 2.057 1.057.448.614.673 1.448.673 2.508 0 .605-.06 1.166-.284 1.668-.283.503-.553.883-.95 1.11.512.331.9.78 1.175 1.39.276.558.388 1.28.388 2.007 0 1.279-.276 2.278-.83 3.057-.568.838-1.223 1.226-2.124 1.226-.83 0-1.549-.334-2.114-1.002-.608-.781-.935-1.78-.935-3.171 0-.78.11-1.394.38-2.058a2.929 2.929 0 0 1 1.12-1.45c-.387-.276-.788-.606-.954-1.167zm-5.499 3.949c-.67 0-1.34-.39-1.84-1.221-.499-.838-.782-1.894-.782-3.286 0-1.333.283-2.45.844-3.339.554-.834 1.211-1.28 2.103-1.28.895 0 1.675.558 2.235 1.615.61 1.114.88 2.836.88 5.286 0 2.505-.27 4.341-.88 5.452-.615 1.114-1.452 1.671-2.448 1.671-.733 0-1.336-.28-1.729-.834-.451-.614-.722-1.452-.844-2.617l1.675-.279c0 .556.115.948.338 1.167.158.226.387.396.719.396.344 0 .62-.28.898-.783.27-.501.435-1.5.493-3.115-.493.832-1.047 1.167-1.662 1.167zm-9.46-3.282v-2.335c.44-.223.883-.668 1.436-1.34.568-.554.956-1.334 1.121-2.168h1.391v13.8h-1.722v-9.903c-.678.834-1.398 1.56-2.227 1.947zm83.564 32.608v.158L75 81.737 5.62 92.25v-.109c-.224-1.002-.5-2.063-.665-3.062l70.044-10.183 69.989 10.183a27.376 27.376 0 0 1-.665 3.062zm-8.786 20.916h-.062c-1.418 2.206-2.928 4.365-4.517 6.373-.214.27-.435.541-.649.804-.228.28-.452.554-.676.831v.003a81.44 81.44 0 0 1-5.142 5.463c-.468.457-.95.903-1.437 1.345-.043.052-.106.102-.159.145-.32.277-.603.56-.936.837h.056c-.056 0-.056 0-.056.056a7.23 7.23 0 0 0-1.002.834c-2.01 1.615-4.005 3.171-6.178 4.618h.063c-.063 0-.115 0-.115.057-.284.171-.56.336-.778.501 0 0-.06.055-.112.112-.947.56-1.84 1.114-2.78 1.668-.276.171-.553.333-.837.501-.78.445-1.513.834-2.225 1.22a68.26 68.26 0 0 1-4.028 1.951c-8.215 3.653-17.106 5.664-26.649 6.06-.77.03-1.543.052-2.319.062h-.054c-.749-.017-1.495-.043-2.24-.07a82.884 82.884 0 0 1-14.28-1.882 69.876 69.876 0 0 1-12.415-4.164 64.194 64.194 0 0 1-2.042-.952 59.961 59.961 0 0 1-2.4-1.226l-.277-.109-.122-.112c-.716-.445-1.502-.83-2.228-1.279-.777-.445-1.55-.95-2.275-1.39a7.792 7.792 0 0 0-.948-.555c-2.16-1.507-4.277-3.063-6.29-4.73-.387-.28-.773-.61-1.107-.887a96.247 96.247 0 0 1-1.404-1.253c-.49-.442-.962-.89-1.438-1.346a82.977 82.977 0 0 1-5.169-5.468v-.007a72.34 72.34 0 0 1-1.305-1.638c-1.51-1.945-2.927-3.956-4.317-6.04-.167-.283-.277-.56-.443-.837.166-.27.331-.659.615-1.05 1.165-1.84 3.004-3.618 5.617-5.457 2.548-1.725 6.01-2.67 10.343-2.67 3.065.164 5.624 1.17 7.686 3.062 1.999 1.833 3.61 3.953 4.78 6.392.675 1.282 1.307 2.288 1.79 4.101.103.395.202.784.296 1.17.243-.165.48-.339.729-.51 1.439-1.043 3.075-2.223 6.204-2.223 1.762 0 3.05.376 4.09.887.35-2.462.96-5.186 1.852-8.205 1.114-3.785 2.953-7.06 5.63-9.959 2.61-2.894 6.343-4.45 11.122-4.678 4.726.284 8.458 1.784 11.121 4.678 2.624 2.898 4.45 6.174 5.63 9.96.897 3.022 1.504 5.755 1.827 8.217 1.048-.51 2.34-.9 4.117-.9 3.129 0 4.76 1.18 6.2 2.222.255.172.495.35.74.518.112-.379.234-.775.359-1.177.34-1.055 1.105-2.98 1.658-4.1 1.177-2.44 2.85-4.56 4.846-6.393 2.064-1.892 4.625-2.898 7.68-3.063 4.286 0 7.784.89 10.405 2.671 2.67 1.671 4.562 3.451 5.729 5.175.227.39.448.778.613 1.062-.11.27-.274.547-.386.774zm4.171-75.892c-6.62-11.29-15.577-20.254-26.874-26.874C101.594 3.614 88.971.222 75 0h-.054C60.985.222 48.41 3.614 37.108 10.291c-11.233 6.62-20.2 15.583-26.873 26.874C3.615 48.403.169 61.035.004 74.996v.061c.052 2.613.164 5.228.435 7.73.222 2.338.56 4.62 1.002 6.9.229 1.055.457 2.176.733 3.227v.057c1.667 7.015 4.388 13.635 8.06 19.918.444.834.946 1.616 1.514 2.394a69.1 69.1 0 0 0 1.653 2.508 84.973 84.973 0 0 0 2.305 3.175 74.121 74.121 0 0 0 6.722 7.572 74.526 74.526 0 0 0 8.972 7.52 79.014 79.014 0 0 0 5.708 3.704A69.706 69.706 0 0 0 40.8 141.8a72.152 72.152 0 0 0 10.55 4.42 77.488 77.488 0 0 0 6.287 1.778c.16.036.305.072.463.105a75.38 75.38 0 0 0 8.875 1.45c2.609.27 5.269.423 7.969.446H75a85.153 85.153 0 0 0 8.015-.445 77.182 77.182 0 0 0 8.897-1.457 74.021 74.021 0 0 0 6.758-1.876 71.137 71.137 0 0 0 10.487-4.421 69.036 69.036 0 0 0 3.678-2.038 52.94 52.94 0 0 0 3.059-1.891c.277-.165.554-.39.838-.61h.053c.59-.386 1.163-.788 1.73-1.187a68.878 68.878 0 0 0 5.779-4.546h.053c.339-.336.623-.554.949-.886.303-.274.613-.558.91-.838a70.05 70.05 0 0 0 6.823-7.289v-.056c.403-.491.808-.982 1.194-1.48a70.82 70.82 0 0 0 2.334-3.161 89.687 89.687 0 0 0 1.928-2.872v-.052c.445-.61.838-1.335 1.224-2.005 3.725-6.23 6.395-12.85 8.069-19.918.28-1.059.558-2.17.719-3.224v-.06c.449-2.28.837-4.562 1.062-6.9.217-2.502.389-5.117.444-7.73v-.06c-.227-13.908-3.616-26.594-10.294-37.832z" fill="#c79421"/><g fill="#2a3c93"><path d="m107.6 22.141 1.612-2.448 1.612 1.115c.893.557 1.391.833 1.503.998.336.28.501.615.554.892.116.335 0 .615-.161.946-.228.277-.452.503-.729.671a2.12 2.12 0 0 1-.828 0c-.339-.113-.952-.503-2.007-1.117zm3.501 5.283c-.112-.496-.277-1.05-.56-1.553.949.503 1.786.612 2.564.447.778-.225 1.385-.612 1.84-1.391.329-.558.554-1.115.554-1.73-.06-.664-.225-1.275-.663-1.778-.399-.445-1.17-1.11-2.291-1.78l-4.391-2.946-6.231 9.625 2.11 1.386 2.611-4.004.396.277c.501.338.837.615 1.054.78.165.226.284.5.399.834.109.28.109 1.003.159 2.113l.168 3.12 2.508 1.612-.056-2.726c-.066-1.053-.109-1.84-.171-2.286zM88.463 21.251l6.788-10.236-2.614-.552-4.843 7.56-1.223-8.9-2.617-.554 1.839 12.072zM82.167 8.57l-2.558-.223-.942 11.348 2.505.224zM82.332 5.395l-2.38-.165-.228 2.11 2.443.171zM69.985 19.751l-.338-7.345 5.347 7.065 2.508-.112-.504-11.403-2.391.109.336 7.514-5.347-7.234-2.497.112.56 11.403zM95.749 21.528l1.17-2.886 5.789 2.386.662-1.832-5.726-2.336.946-2.393 6.234 2.612.716-1.833-8.565-3.453-4.292 10.572 8.746 3.562.768-1.783z"/></g><path d="m58.586 41.782-3.507 5.84h39.843l-3.564-5.84z" fill="#c79421"/><g fill="#2a3c93"><path d="M120.12 36.666c.494-.557.837-1.057.949-1.668.053-.56 0-1.17-.224-1.728-.231-.611-.725-1.449-1.444-2.502-.725-1.06-1.058-1.724-1.174-2.174-.052-.275.06-.555.165-.722.234-.222.554-.331.838-.222.501.057 1.001.389 1.562.89.504.504.782.946.89 1.39.056.393-.059.896-.386 1.392l1.834 1.726c.774-.831 1.051-1.726.945-2.782-.108-1.057-.725-2.06-1.892-3.173-.725-.666-1.391-1.111-2.063-1.388-.663-.28-1.279-.39-1.945-.223-.614.112-1.121.393-1.5.837-.617.609-.894 1.388-.782 2.394.056.664.502 1.61 1.28 2.721.616.945.949 1.505 1.114 1.782.165.388.339.667.339.945 0 .223-.122.5-.283.726-.277.277-.722.387-1.223.328-.508-.109-1.062-.443-1.675-.943-.554-.502-.893-1.056-.949-1.667a2.497 2.497 0 0 1 .507-1.779l-1.945-1.449c-.725 1-1.061 2.057-.893 3.117.109 1.11.838 2.167 1.952 3.278.834.726 1.556 1.228 2.278 1.56.659.333 1.394.39 2.057.222.728-.112 1.279-.389 1.668-.888zM133.59 45.511l1.668-1.056-5.34-8.402-1.612 1.06 2.001 3.115-8.07 5.064 1.391 2.167 8.011-5.063zM126.95 32.545l-8.835 7.18 1.609 2.002 8.907-7.234zM130.97 32.493l-1.444-1.894-1.724 1.337 1.5 1.894zM137.48 58.308c-.89.22-1.556.78-2.004 1.614-.333.611-.495 1.613-.495 2.95 0 1.111 0 1.779-.059 2.117-.049.389-.165.773-.284.94-.165.225-.382.39-.659.448-.336.054-.785-.058-1.167-.447-.396-.333-.672-.887-.837-1.667-.165-.723-.112-1.39.112-1.893.277-.5.778-.946 1.444-1.224l-.719-2.28c-1.285.388-2.123 1.11-2.565 2.055-.501 1.003-.501 2.231-.161 3.788.221 1.053.491 1.948.887 2.556a3.777 3.777 0 0 0 1.608 1.39c.673.28 1.339.337 1.952.225.725-.168 1.226-.445 1.668-.837.389-.442.616-.999.781-1.612.168-.67.284-1.61.284-2.837-.069-1.279.049-2.116.214-2.448.112-.28.34-.502.616-.502.278-.11.498 0 .775.223.34.334.617.888.726 1.615.164.67.164 1.224-.054 1.666-.167.392-.566.727-1.114.953l.614 2.445c1.054-.28 1.832-.89 2.333-1.784.442-.941.505-2.11.165-3.672a6.393 6.393 0 0 0-.89-2.333c-.389-.557-.89-1-1.44-1.23-.617-.276-1.17-.387-1.731-.219zM125.57 50.854l3.619 8.79 1.784-.78-2.621-6.396 2.842-1.17 2.393 5.73 1.721-.725-2.334-5.73 2.334-.944 2.561 6.173 1.777-.778-3.501-8.512zM131.25 72.833l11.406-1.005-.165-2.502-11.406.998zM145.82 71.494l-.22-2.332-2.11.161.162 2.39zM38.108 18.584l-2.393 1.833.56 5.344-5.124-1.84-2.278 1.894 7.68 2.393 2.94 3.727 2.004-1.498-2.993-3.843zM44.397 23.088l-.554-4.503L47.4 21.47zm-3.015-6.175 1.288 12.294 2.393-1.221-.39-2.838 4.392-2.395 2.168 1.787 2.343-1.288-9.733-7.676zM61.757 8.29l-.5-1.895-2.066.558.443 1.836zM58.243 9.176l-.5-1.89-1.999.499.45 1.894zM56.581 19.86c.223.392.553.725.996 1.06.456.331 1.008.499 1.674.608.67.06 1.563 0 2.731-.277.941-.277 1.711-.554 2.278-.943.503-.387.892-.783 1.11-1.225.278-.499.397-1.002.44-1.617-.043-.553-.162-1.498-.493-2.835l-1.444-5.84-2.451.607 1.501 6.178c.223.837.39 1.502.39 1.89 0 .393-.167.78-.39 1.118-.33.335-.786.611-1.501.776-.67.223-1.23.223-1.73 0-.441-.165-.772-.499-.995-.888-.164-.28-.277-.894-.56-1.892l-1.495-6.01-2.454.611 1.443 5.95c.335 1.23.673 2.175.95 2.729zM21.467 46.345l-2.835-3.611 4.503.608zm-6.281 9.016-.615 1.78-2.776-1.003.666-1.891c.331-.944.547-1.502.658-1.666.173-.396.398-.615.733-.727.277-.169.554-.169.948 0 .325.112.554.277.718.5.173.227.277.504.277.784 0 .331-.215 1.053-.61 2.223zM28.15 26.262l-2.278 2.56.441 7.007-3.726-3.284-1.736 1.894 8.184 7.231-12.018-1.445-1.327 2.335 6.62 8.849-1.28.334c-1.002.28-1.778.5-2.235.722-.435.222-.885.56-1.333.95.22-1.06.122-1.949-.216-2.617-.345-.726-.892-1.168-1.73-1.445-.616-.222-1.278-.277-1.832-.115-.677.17-1.17.502-1.556 1.003-.387.557-.79 1.39-1.225 2.616L9.118 57.86l10.854 3.787.83-2.393-4.557-1.56.22-.497c.16-.557.327-.948.553-1.17.162-.224.341-.445.664-.557.29-.165.95-.39 2.013-.722l2.953-.892.487-1.446 1.346-2.223-1.729-2.225 2.499-4.345 2.787.447 1.274-2.168.165.11 1.675-1.836-2.56-2.335-.161-2.674 6.281.892 2.167-2.448-8.503-.944zM10.344 60.421l-1.894-.335-1.56 9.849 1.959.278.547-3.615 9.4 1.445.39-2.497-9.396-1.453z"/></g><g fill="#c79421"><path d="M78.112 59.089c.39 0 .616-.168.778-.445.224-.28.336-.67.336-1.223 0-.506-.112-.893-.277-1.225-.17-.28-.448-.395-.78-.395-.393 0-.67.115-.832.446-.168.337-.34.726-.34 1.225 0 .503.172.892.34 1.172a.875.875 0 0 0 .775.445zM78.165 65.597c.396-.054.672-.22.95-.61.227-.335.336-.891.336-1.671 0-.612-.11-1.114-.337-1.56-.277-.33-.553-.553-.949-.553-.386 0-.719.222-.94.667-.227.39-.34.892-.34 1.446 0 .664.113 1.224.34 1.671.277.39.554.61.94.61zM70.38 55.859c-.277 0-.56.222-.732.615-.217.39-.382 1.002-.382 1.836 0 .888.165 1.56.382 2 .226.393.51.555.89.555.29 0 .567-.162.783-.556.277-.389.393-.943.393-1.722 0-.834-.116-1.556-.393-2.003-.216-.503-.553-.725-.941-.725z"/></g></g></svg>