<svg width="242" height="138" fill="none" xmlns="http://www.w3.org/2000/svg"><path d="M121 104.105v-70.21L60.5 0 0 33.895v70.21L60.5 138l60.5-33.895Z" fill="#243D8F"/><path d="M242 104.105v-70.21L181.5 0 121 33.895v70.21L181.5 138l60.5-33.895Z" fill="#0080FF"/><path d="M35.777 31.977c0-.116.058-.174.175-.174a34.997 34.997 0 0 0 2.962 1.917 63.365 63.365 0 0 1 3.136 1.744c.077 3.408.097 6.76.058 10.052a835.551 835.551 0 0 0-.058 9.82v46.891a62.953 62.953 0 0 0-3.136 1.743 63.77 63.77 0 0 1-3.137 1.743V31.977ZM20.793 72.418a84.824 84.824 0 0 0-3.195-1.8 71.794 71.794 0 0 1-3.078-1.86 673.436 673.436 0 0 0 10.454-6.101 547.97 547.97 0 0 1 10.629-6.101c.078 1.24.097 2.46.058 3.66-.039 1.201-.058 2.363-.058 3.487-.62.426-1.239.833-1.858 1.22-.581.349-1.181.697-1.801 1.046a410.037 410.037 0 0 0-5.576 3.196 207.978 207.978 0 0 0-5.575 3.253Zm21.431-12.202a359.392 359.392 0 0 1 7.318 4.3 711.515 711.515 0 0 0 7.318 4.242c-.968.62-1.994 1.24-3.078 1.86a56.458 56.458 0 0 0-3.02 1.8 96.11 96.11 0 0 1-4.356-2.44 116.749 116.749 0 0 0-4.182-2.44v-7.322ZM66.905 71.256v14.992c0 .348-.02.716-.058 1.104-.039.387-.02.716.058.987.039.078.135.194.29.349l.581.349c.233.116.446.232.64.348.193.078.328.136.406.175l6.62 3.718a576.18 576.18 0 0 0 6.622 3.777c2.555-1.472 5.053-2.925 7.492-4.358a1002.74 1002.74 0 0 1 7.493-4.358V73.35c0-.35-.02-.737-.059-1.163-.038-.426-.019-.736.059-.93.077-.193.29-.368.638-.522.349-.155.659-.33.93-.523l4.704-2.615V92c-.077.078-.252.194-.523.349a3.29 3.29 0 0 0-.697.523c-3.252 1.859-6.388 3.64-9.409 5.345a466.45 466.45 0 0 0-9.408 5.462 3.515 3.515 0 0 0-.697.407c-.272.194-.446.29-.523.29-.194 0-.426-.096-.697-.29a3.515 3.515 0 0 0-.697-.407 527.04 527.04 0 0 0-10.048-5.927c-3.33-1.898-6.66-3.815-9.99-5.752V67.596a89.097 89.097 0 0 1 3.195 1.743c1.084.581 2.11 1.22 3.078 1.917Z" fill="#fff"/><path d="M77.44 53.263c.605.39 1.21.746 1.815 1.065.605.355 1.21.782 1.815 1.279v11.398c-.514.39-1.104.781-1.77 1.172-.635.39-1.255.781-1.86 1.172V53.263ZM87.12 53.263c-.605.39-1.21.746-1.815 1.065-.605.355-1.21.782-1.815 1.279v11.398c.514.39 1.104.781 1.77 1.172.635.39 1.255.781 1.86 1.172V53.263ZM179.08 72.632l4.84 2.075V92l-4.84 2.421v-21.79ZM183.92 60.526l-4.84 2.421v7.263l4.84 2.422V60.526ZM136.953 48.595v17.258a197.16 197.16 0 0 0 7.608-4.242 513.544 513.544 0 0 1 7.376-4.3 532.522 532.522 0 0 1 8.073 4.474 287.258 287.258 0 0 1 8.132 4.59l5.227 3.138v24.579a95.65 95.65 0 0 1-2.672 1.569 136.2 136.2 0 0 1-2.73 1.569 576.658 576.658 0 0 0-7.957 4.532 828.306 828.306 0 0 0-7.898 4.706 3611.049 3611.049 0 0 0-10.745-6.217 1772.514 1772.514 0 0 1-10.687-6.16V68.817c0-4.029.019-8.057.058-12.086.039-4.067.019-7.94-.058-11.62v-.175c2.246 1.24 4.337 2.46 6.273 3.66Zm15.159 15.863a293.83 293.83 0 0 0-7.609 4.3 655.952 655.952 0 0 1-7.55 4.416V90.43a5090.96 5090.96 0 0 1 7.55 4.358 339.45 339.45 0 0 1 7.434 4.358 237.583 237.583 0 0 0 7.551-4.3c2.516-1.472 5.053-2.944 7.608-4.416V73.174a1006.65 1006.65 0 0 1-7.492-4.358c-2.44-1.433-4.937-2.886-7.492-4.358ZM212.116 34.07c0-.117.058-.175.174-.175a34.948 34.948 0 0 0 2.962 1.917 63.383 63.383 0 0 1 3.137 1.743c.077 3.41.096 6.76.058 10.053a829.077 829.077 0 0 0-.058 9.82v46.89a64.628 64.628 0 0 0-3.137 1.743 63.789 63.789 0 0 1-3.136 1.744V34.069Zm-14.985 40.44a84.65 84.65 0 0 0-3.194-1.8 71.846 71.846 0 0 1-3.078-1.86 675.268 675.268 0 0 0 10.454-6.101 548.308 548.308 0 0 1 10.629-6.101c.077 1.24.096 2.46.058 3.66a107.46 107.46 0 0 0-.058 3.486c-.62.427-1.239.833-1.859 1.22-.581.35-1.181.698-1.8 1.047a404.08 404.08 0 0 0-5.576 3.195 207.567 207.567 0 0 0-5.576 3.254Zm21.432-12.202a362.137 362.137 0 0 1 7.318 4.3 710.44 710.44 0 0 0 7.318 4.242c-.968.62-1.994 1.24-3.078 1.86a56.287 56.287 0 0 0-3.021 1.8 95.86 95.86 0 0 1-4.355-2.44 116.759 116.759 0 0 0-4.182-2.44v-7.322Z" fill="#fff"/></svg>