<?xml version="1.0" encoding="UTF-8"?>
<svg xmlns="http://www.w3.org/2000/svg" xmlns:xlink="http://www.w3.org/1999/xlink" width="268px" height="238px" viewBox="0 0 134 119" version="1.1">
<g id="surface1">
<path style=" stroke:none;fill-rule:nonzero;fill:rgb(100%,100%,100%);fill-opacity:1;" d="M 57.667969 118.308594 L 54.300781 117.679688 L 46.445312 115.097656 L 38.875 111.328125 L 32.28125 106.902344 L 26.445312 101.335938 L 22.828125 95.890625 L 21.796875 93.609375 L 20.765625 91.332031 L 19.257812 85.355469 L 19.023438 80.714844 L 66.503906 80.550781 L 66.503906 114.011719 L 68.652344 113.640625 L 74.609375 112.402344 L 81.246094 110.417969 L 86.585938 108.132812 L 91.484375 105.351562 L 95.902344 102.066406 L 101.074219 96.5625 L 104.296875 91.175781 L 106.492188 84.789062 L 106.71875 82.667969 L 106.941406 80.550781 L 111.832031 80.550781 L 111.832031 83.15625 L 110.84375 87.863281 L 108.621094 93.804688 L 105.4375 99.074219 L 100.988281 104.3125 L 95.453125 108.777344 L 89.320312 112.417969 L 82.21875 115.40625 L 74.535156 117.632812 L 67.464844 119 L 61.042969 118.9375 Z M 79.078125 101.429688 L 77.917969 101.222656 L 76.457031 100.425781 L 74.660156 98.070312 L 74.515625 96.328125 L 74.371094 94.578125 L 75.417969 92.550781 L 75.222656 90.445312 L 75.023438 88.339844 L 76.058594 85.867188 L 78.25 84.53125 L 82.550781 84.53125 L 84.667969 85.824219 L 85.695312 87.8125 L 85.695312 89.070312 L 85.691406 90.332031 L 85.027344 92.71875 L 86.082031 95.253906 L 85.675781 97.960938 L 84.519531 99.726562 L 82.804688 101.078125 L 80.234375 101.632812 Z M 80.234375 90.179688 L 81.890625 90.1875 L 83.542969 91.132812 L 83.964844 91.15625 L 84.171875 90.058594 L 84.378906 88.957031 L 83.617188 86.777344 L 82.515625 86.3125 L 81.414062 85.851562 L 79.449219 85.851562 L 77.640625 86.542969 L 76.78125 87.675781 L 76.769531 89.398438 L 76.761719 91.121094 L 78.578125 90.167969 Z M 10.800781 71.710938 L 10.585938 71.488281 L 10.585938 65.96875 L -0.00390625 65.96875 L -0.00390625 40.773438 L 10.5625 40.773438 L 10.652344 37.210938 L 10.75 33.648438 L 21.832031 33.464844 L 21.832031 49.726562 L 112.144531 49.726562 L 112.234375 41.6875 L 112.320312 33.648438 L 123.402344 33.464844 L 123.402344 40.441406 L 133.988281 40.441406 L 133.988281 65.964844 L 123.402344 65.964844 L 123.402344 71.945312 L 112.320312 71.761719 L 112.144531 55.023438 L 21.832031 55.023438 L 21.832031 71.925781 L 11.023438 71.925781 Z M 10.257812 47.570312 L 10.257812 42.429688 L 1.652344 42.429688 L 1.652344 52.703125 L 10.257812 52.703125 Z M 132.597656 47.488281 L 132.691406 42.433594 L 124.070312 42.433594 L 124.070312 52.726562 L 132.507812 52.542969 Z M 20.183594 41.925781 L 20.183594 35.121094 L 12.40625 35.304688 L 12.226562 47.882812 L 12.390625 48.304688 L 12.550781 48.730469 L 20.183594 48.730469 Z M 121.753906 41.933594 L 121.753906 35.136719 L 114.144531 35.136719 L 114.144531 48.726562 L 121.753906 48.726562 Z M 24.316406 68.113281 L 24.316406 65.964844 L 27.324219 65.964844 L 28.121094 66.757812 L 28.121094 69.742188 L 28.765625 69.097656 L 29.671875 66.460938 L 30.382812 66.355469 L 31.097656 66.25 L 31.746094 68.117188 L 32.691406 69.886719 L 32.308594 70.273438 L 30.765625 70.273438 L 30.765625 69.277344 L 30.105469 69.277344 L 30.105469 70.164062 L 24.316406 70.253906 Z M 26.796875 68.949219 L 26.796875 68.617188 L 25.804688 68.617188 L 25.804688 69.28125 L 26.796875 69.28125 Z M 30.4375 68.121094 L 30.4375 67.957031 L 30.105469 67.957031 L 30.105469 68.289062 L 30.4375 68.289062 Z M 26.707031 67.425781 L 26.507812 67.222656 L 26.070312 67.394531 L 25.636719 67.570312 L 26.90625 67.625 Z M 33.707031 70.027344 L 33.671875 69.777344 L 33.769531 68.441406 L 32.421875 66.988281 L 32.421875 66.296875 L 34.359375 66.296875 L 34.648438 67.789062 L 34.691406 67.042969 L 34.738281 66.296875 L 36.390625 66.296875 L 36.390625 67.023438 L 35.730469 67.859375 L 35.074219 68.699219 L 35.472656 70.277344 L 33.746094 70.277344 Z M 36.726562 69.695312 L 36.734375 69.117188 L 37.171875 67.640625 L 37.613281 66.164062 L 38.46875 65.882812 L 38.007812 67.789062 L 37.683594 69.035156 L 37.359375 70.277344 L 36.722656 70.277344 Z M 39.007812 70.109375 L 38.976562 69.945312 L 38.910156 66.132812 L 42.066406 65.925781 L 42.964844 66.675781 L 42.953125 68.0625 L 42.9375 69.449219 L 42.265625 70.277344 L 39.039062 70.277344 Z M 41.683594 68.949219 L 41.683594 68.617188 L 40.324219 68.617188 L 40.734375 69.28125 L 41.683594 69.28125 Z M 41.4375 67.402344 L 41.023438 67.238281 L 40.195312 67.566406 L 41.851562 67.566406 Z M 43.007812 70.128906 L 43.007812 69.933594 L 43.652344 68.785156 L 44.628906 66.296875 L 45.933594 66.296875 L 46.726562 68.785156 L 47.308594 69.414062 L 47.308594 70.277344 L 45.65625 70.277344 L 45.65625 69.28125 L 44.664062 69.28125 L 44.828125 70.109375 L 43.007812 70.320312 Z M 45.324219 68.121094 L 45.324219 67.957031 L 44.992188 67.957031 L 44.992188 68.289062 L 45.324219 68.289062 Z M 48.425781 69.496094 L 48.632812 68.667969 L 46.917969 66.628906 L 47.425781 66.433594 L 47.933594 66.242188 L 49.128906 66.472656 L 49.128906 67.238281 L 49.625 67.734375 L 49.625 66.296875 L 51.28125 66.296875 L 51.28125 66.691406 L 49.914062 68.617188 L 50.015625 69.363281 L 50.121094 70.109375 L 48.214844 70.324219 Z M 51.023438 70.027344 L 51.148438 69.777344 L 52.175781 67.460938 L 52.582031 66.296875 L 53.871094 66.296875 L 54.441406 67.789062 L 55.007812 69.28125 L 55.914062 69.28125 L 55.914062 67.328125 L 55.574219 67.125 L 55.238281 66.914062 L 55.429688 66.605469 L 55.617188 66.296875 L 57.082031 66.296875 L 58.273438 68.121094 L 58.078125 67.210938 L 57.882812 66.296875 L 59.511719 66.296875 L 59.699219 66.605469 L 59.894531 66.914062 L 59.554688 67.125 L 59.222656 67.328125 L 59.222656 70.277344 L 58.28125 70.277344 L 56.890625 68.453125 L 57.101562 69.363281 L 57.304688 70.277344 L 53.597656 70.277344 L 53.597656 69.28125 L 52.933594 69.28125 L 52.933594 70.277344 L 50.894531 70.277344 Z M 53.265625 68.121094 L 53.265625 67.957031 L 52.933594 67.957031 L 52.933594 68.289062 L 53.265625 68.289062 Z M 61.539062 69.597656 L 61.539062 68.921875 L 63.851562 69.351562 L 63.851562 68.660156 L 61.703125 68.453125 L 61.703125 66.132812 L 65.011719 66.132812 L 65.078125 67.769531 L 65.152344 69.410156 L 64.433594 70.273438 L 61.539062 70.273438 Z M 63.941406 67.410156 L 63.53125 67.242188 L 62.363281 67.546875 L 64.347656 67.570312 Z M 65.660156 68.289062 L 65.671875 66.296875 L 68.734375 66.296875 L 69.527344 67.257812 L 69.417969 68.019531 L 69.3125 68.78125 L 67.128906 68.992188 L 67.535156 70.277344 L 65.648438 70.277344 Z M 68.15625 67.625 L 68.15625 67.292969 L 67.160156 67.292969 L 67.160156 67.957031 L 68.15625 67.957031 Z M 69.941406 69.816406 L 69.765625 69.359375 L 69.867188 67.910156 L 69.972656 66.464844 L 71.875 66.246094 L 73.449219 66.644531 L 73.449219 69.480469 L 72.65625 70.277344 L 70.117188 70.277344 Z M 72.125 68.289062 L 72.125 67.292969 L 71.109375 67.292969 L 70.726562 68.289062 L 71.109375 69.28125 L 72.125 69.28125 Z M 73.929688 68.269531 L 73.929688 66.269531 L 77.183594 66.464844 L 77.546875 67.039062 L 77.910156 67.621094 L 77.113281 68.894531 L 78.074219 69.691406 L 77.710938 70.277344 L 76.46875 70.277344 L 76.050781 68.949219 L 75.019531 68.949219 L 75.386719 69.394531 L 75.757812 69.839844 L 75.320312 70.277344 L 73.929688 70.277344 Z M 76.421875 67.625 L 76.421875 67.292969 L 75.429688 67.292969 L 75.429688 67.957031 L 76.421875 67.957031 Z M 79.554688 68.289062 L 79.566406 66.296875 L 81.042969 66.296875 L 82.152344 68 L 83.570312 66.222656 L 84.785156 66.464844 L 84.785156 70.109375 L 82.976562 70.324219 L 83.421875 68.121094 L 82.128906 70.003906 L 81.070312 68.492188 L 80.605469 68.960938 L 80.996094 69.351562 L 81.386719 69.746094 L 81.386719 70.277344 L 79.542969 70.277344 Z M 85.511719 68.289062 L 85.511719 66.296875 L 88.996094 66.296875 L 88.996094 67.65625 L 86.84375 67.386719 L 88.003906 67.671875 L 88.003906 68.617188 L 87.050781 68.617188 L 86.820312 68.992188 L 86.585938 69.367188 L 88.996094 68.917969 L 88.996094 70.273438 L 85.511719 70.273438 Z M 89.480469 68.269531 L 89.480469 66.269531 L 92.734375 66.464844 L 93.097656 67.039062 L 93.460938 67.621094 L 93.015625 68.332031 L 92.574219 69.035156 L 93.460938 69.601562 L 94.007812 69.613281 L 93.8125 66.464844 L 95.675781 66.25 L 95.238281 67.625 L 95.945312 67.625 L 95.945312 66.296875 L 97.929688 66.296875 L 97.929688 66.753906 L 96.441406 68.34375 L 97.183594 68.945312 L 97.929688 69.554688 L 97.929688 70.273438 L 96.546875 70.273438 L 95.320312 68.78125 L 95.683594 70.238281 L 92.140625 70.160156 L 91.277344 68.945312 L 90.714844 68.945312 L 91.058594 70.273438 L 89.480469 70.273438 Z M 91.972656 67.625 L 91.972656 67.292969 L 91.019531 67.292969 L 90.613281 67.957031 L 91.972656 67.957031 Z M 98.414062 68.289062 L 98.425781 66.296875 L 101.898438 66.296875 L 101.898438 67.675781 L 100.078125 67.394531 L 100.90625 67.671875 L 100.90625 68.617188 L 99.914062 68.617188 L 99.914062 69.335938 L 101.898438 68.898438 L 101.898438 70.273438 L 98.398438 70.273438 Z M 102.230469 69.734375 L 102.230469 69.152344 L 104.050781 67.203125 L 102.230469 67.632812 L 102.230469 66.296875 L 105.539062 66.296875 L 105.539062 67.0625 L 103.832031 69.304688 L 105.605469 68.859375 L 105.484375 69.484375 L 105.367188 70.109375 L 102.230469 70.308594 Z M 106.027344 68.289062 L 106.027344 66.296875 L 107.371094 66.296875 L 107.371094 70.277344 L 106.027344 70.277344 Z M 39.695312 44.585938 L 38.542969 44.199219 L 35.261719 36.398438 L 35.910156 35.226562 L 36.558594 34.050781 L 41.519531 32.125 L 44.324219 30.832031 L 44.984375 30.832031 L 45.90625 33.042969 L 46.109375 33.6875 L 46.3125 34.335938 L 43.335938 35.4375 L 43.335938 34.808594 L 42.398438 34.808594 L 39.21875 36.175781 L 39.007812 36.386719 L 40.789062 40.941406 L 41.316406 41.535156 L 45.320312 40.03125 L 45.316406 39.824219 L 45.3125 39.613281 L 45.015625 39.136719 L 44.710938 38.65625 L 42.976562 39.449219 L 42.480469 39.449219 L 42.050781 38.261719 L 41.621094 37.078125 L 41.847656 36.921875 L 46.148438 35.136719 L 46.824219 35.136719 L 47.765625 37.613281 L 48.710938 40.085938 L 47.472656 42.199219 L 40.847656 44.976562 Z M 87.519531 43.726562 L 85.214844 42.730469 L 84.917969 42.433594 L 85.675781 40.773438 L 86.898438 40.773438 L 89.25 34.847656 L 88.25 34.46875 L 87.425781 35.152344 L 85.644531 34.476562 L 86.097656 33.042969 L 87.007812 30.863281 L 95.777344 34.535156 L 96.605469 34.878906 L 96.605469 35.78125 L 96.035156 37.035156 L 95.46875 38.289062 L 95.390625 38.453125 L 93.285156 37.722656 L 93.460938 36.628906 L 92.234375 36.628906 L 91.078125 39.4375 L 89.917969 42.238281 L 90.648438 42.488281 L 90.648438 43.632812 L 89.824219 44.71875 Z M 80.480469 41.195312 L 78.082031 40.695312 L 78.082031 39.164062 L 78.613281 38.628906 L 79.148438 38.089844 L 78.773438 37.710938 L 75.652344 37.128906 L 75.316406 37.46875 L 75.851562 37.878906 L 76.382812 38.289062 L 76.019531 40.113281 L 74.9375 40.089844 L 70.652344 39.167969 L 70.535156 38.820312 L 70.421875 38.472656 L 69.660156 38.96875 L 68.898438 39.46875 L 59.71875 39.378906 L 49.496094 41.421875 L 49.386719 41.273438 L 49.1875 40.195312 L 48.980469 39.117188 L 49.957031 39.117188 L 49.957031 38.34375 L 49.382812 35.367188 L 48.816406 32.386719 L 47.675781 32.089844 L 47.246094 30.121094 L 47.476562 29.929688 L 58.046875 27.882812 L 58.488281 28.601562 L 58.902344 31.203125 L 58.519531 31.824219 L 56.628906 31.824219 L 56.410156 31.167969 L 52.273438 31.941406 L 52.273438 33.109375 L 52.796875 33.4375 L 55.953125 32.394531 L 56.484375 32.984375 L 56.683594 34.039062 L 56.878906 35.09375 L 53.101562 36.371094 L 53.328125 37.625 L 53.378906 37.679688 L 53.429688 37.730469 L 57.394531 36.9375 L 57.613281 35.804688 L 59.222656 35.804688 L 59.46875 35.730469 L 59.71875 35.660156 L 60.097656 37.304688 L 60.476562 38.953125 L 60.542969 35.472656 L 63.117188 35.472656 L 63.511719 36.5 L 67.660156 36.300781 L 67.660156 34.972656 L 62.363281 34.773438 L 60.542969 33.027344 L 60.542969 29.234375 L 62.640625 27.464844 L 69.308594 27.589844 L 71.128906 27.902344 L 71.128906 31.492188 L 68.554688 31.492188 L 68.15625 30.460938 L 64.023438 30.660156 L 63.910156 31.242188 L 63.800781 31.820312 L 69.09375 31.820312 L 71.09375 33.511719 L 71.289062 36.953125 L 71.789062 37.039062 L 72.285156 37.125 L 77.425781 28.570312 L 81.085938 29.421875 L 81.449219 29.785156 L 82.816406 39.445312 L 83.699219 39.445312 L 83.699219 40.714844 L 83.296875 41.765625 L 82.871094 41.691406 Z M 78.589844 33.941406 L 78.359375 32.714844 L 77.089844 34.644531 L 77.089844 35.09375 L 77.832031 35.210938 L 78.578125 35.332031 L 78.820312 35.167969 Z M 19.082031 27.304688 L 18.847656 27.070312 L 18.847656 0.0078125 L 112.484375 0.0078125 L 112.484375 27.519531 L 104.210938 27.519531 L 104.210938 9.28125 L 27.792969 9.28125 L 27.707031 18.3125 L 27.617188 27.347656 L 19.3125 27.53125 Z M 36.792969 17.386719 L 36.058594 16.871094 L 36.058594 15.269531 L 37.710938 14.179688 L 39.367188 15.269531 L 39.367188 16.871094 L 37.894531 17.898438 L 37.527344 17.898438 Z M 49.949219 17.4375 L 49.949219 16.925781 L 51.933594 17.324219 L 51.933594 16.621094 L 50.117188 16.410156 L 49.90625 14.917969 L 52.597656 14.917969 L 52.597656 15.582031 L 50.445312 15.664062 L 52.433594 16.085938 L 52.433594 17.738281 L 49.949219 17.941406 Z M 53.753906 16.410156 L 53.753906 14.917969 L 54.746094 14.917969 L 54.769531 17.902344 L 53.753906 17.902344 Z M 56.066406 16.410156 L 56.070312 14.917969 L 57.148438 14.917969 L 58.253906 16.410156 L 58.105469 15.664062 L 57.953125 14.917969 L 59.054688 14.917969 L 58.9375 16.410156 L 58.816406 17.902344 L 58.046875 17.902344 L 56.855469 16.078125 L 57.140625 17.902344 L 56.054688 17.902344 Z M 60.347656 17.453125 L 60.15625 16.964844 L 60.371094 15.085938 L 63.183594 14.878906 L 63.183594 15.925781 L 62.378906 15.722656 L 61.570312 15.523438 L 60.933594 15.914062 L 61.113281 16.609375 L 61.296875 17.304688 L 63.238281 16.914062 L 63.105469 17.328125 L 62.96875 17.738281 L 60.535156 17.941406 Z M 64.011719 16.410156 L 64.011719 14.917969 L 66.824219 14.917969 L 66.824219 15.578125 L 65.003906 15.65625 L 66.164062 15.960938 L 66.164062 16.574219 L 65.171875 16.574219 L 65.171875 17.3125 L 66.824219 17 L 66.824219 17.898438 L 64.011719 17.898438 Z M 69.203125 16.992188 L 69.304688 16.082031 L 71.289062 15.664062 L 69.140625 15.582031 L 69.140625 14.917969 L 71.789062 14.917969 L 71.789062 16.578125 L 70.171875 16.578125 L 69.710938 17.328125 L 71.789062 17.023438 L 71.789062 17.898438 L 69.097656 17.898438 Z M 73.003906 17.679688 L 72.78125 17.460938 L 72.78125 14.917969 L 75.425781 14.917969 L 75.425781 17.898438 L 73.222656 17.898438 Z M 74.765625 16.410156 L 74.765625 15.582031 L 73.441406 15.582031 L 73.441406 17.238281 L 74.765625 17.238281 Z M 76.558594 17.457031 L 76.371094 16.964844 L 76.585938 15.085938 L 79.230469 15.085938 L 79.230469 17.738281 L 76.746094 17.941406 Z M 78.40625 16.410156 L 78.40625 15.582031 L 77.082031 15.582031 L 77.082031 16.800781 L 77.523438 17.238281 L 78.40625 17.238281 Z M 80.296875 17.699219 L 80.058594 17.460938 L 80.058594 16.925781 L 82.042969 17.324219 L 82.042969 16.621094 L 80.222656 16.410156 L 80.222656 15.085938 L 82.871094 15.085938 L 82.871094 17.738281 L 80.53125 17.9375 Z M 82.042969 15.914062 L 82.042969 15.582031 L 81.050781 15.582031 L 81.050781 16.246094 L 82.042969 16.246094 Z M 95.015625 17.175781 L 94.617188 16.777344 L 94.617188 15.296875 L 95.65625 14.257812 L 96.886719 14.257812 L 97.925781 15.296875 L 97.925781 16.777344 L 97.132812 17.570312 L 95.410156 17.570312 Z M 95.015625 17.175781 "/>
</g>
</svg>
